<?xml version="1.0" encoding="utf-8"?>
<!-- Generator: Adobe Illustrator 27.5.0, SVG Export Plug-In . SVG Version: 6.00 Build 0)  -->
<svg version="1.1" xmlns="http://www.w3.org/2000/svg" xmlns:xlink="http://www.w3.org/1999/xlink" x="0px" y="0px"
	 viewBox="0 0 1122 1122" style="enable-background:new 0 0 1122 1122;" xml:space="preserve">
<g id="Bg">
	<rect style="fill:#FFFFFF;" width="1122" height="1122"/>
</g>
<g id="Object">
	<g>
		<path style="fill:#616E7D;" d="M225.177,705.13c0,12.382-6.723,22.901-16.098,26.771l0.302,1.513h75.796
			c1.162,0.066,2.324,0.1,3.504,0.1c36.403,0,65.671-30.648,63.383-67.572c-1.979-31.615-27.706-57.361-59.322-59.319
			c-36.93-2.297-67.566,26.959-67.566,63.38l0.012,1.199h-0.012V705.13z"/>
		<path style="fill:#616E7D;" d="M251.903,739.511c-32.965,0-59.697,26.726-59.697,59.695v28.968h192.928v-28.968
			c0-32.969-26.726-59.695-59.697-59.695H251.903z"/>
		<path style="fill:#616E7D;" d="M823.847,588.863V327.817c0-18.737-14.622-33.992-32.597-33.992H326.247
			c-17.962,0-32.597,15.254-32.597,33.992v264.678c7.481,0.581,14.453,1.894,20.832,3.979V327.817
			c0-7.266,5.272-13.179,11.765-13.179H791.25c6.506,0,11.777,5.913,11.777,13.179v267.525
			C809.322,592.377,816.294,590.201,823.847,588.863z"/>
		<path style="fill:#616E7D;" d="M386.053,679.998c0,26.088,21.146,47.24,47.218,47.24c26.109,0,47.273-21.152,47.273-47.24
			c0-26.099-21.164-47.261-47.273-47.261C407.199,632.738,386.053,653.899,386.053,679.998z"/>
		<path style="fill:#616E7D;" d="M496.782,668.859c0,35.32,28.65,63.964,63.97,63.964c35.338,0,63.982-28.644,63.982-63.964
			c0-35.331-28.645-63.976-63.982-63.976C525.432,604.883,496.782,633.528,496.782,668.859z"/>
		<path style="fill:#616E7D;" d="M523.725,738.864c-33.213,0-60.133,26.917-60.133,60.134v29.177h194.331v-29.177
			c0-33.217-26.907-60.134-60.145-60.134H523.725z"/>
		<path style="fill:#616E7D;" d="M832.634,604.883c-35.332,0-63.97,28.645-63.97,63.976c0,35.32,28.638,63.964,63.97,63.964
			c35.332,0,63.977-28.644,63.977-63.964C896.611,633.528,867.966,604.883,832.634,604.883z"/>
		<path style="fill:#616E7D;" d="M795.62,738.864c-33.214,0-60.145,26.917-60.145,60.134v29.177h194.32v-29.177
			c0-33.217-26.907-60.134-60.139-60.134H795.62z"/>
		<path style="fill:#616E7D;" d="M660.877,731.698c-10.301,0-19.784,3.537-27.319,9.435c19.052,11.802,31.87,32.65,32.33,56.538
			h62.494c0.387-19.309,8.92-36.603,22.326-48.653c-8.128-10.518-20.825-17.321-35.138-17.321H660.877z"/>
		<path style="fill:#616E7D;" d="M370.814,749.019c13.387,12.05,21.939,29.344,22.32,48.653h62.663
			c0.46-23.851,13.242-44.683,32.221-56.484c-7.553-5.925-17.03-9.489-27.379-9.489h-54.705
			C391.633,731.698,378.924,738.501,370.814,749.019z"/>
		<path style="fill:#616E7D;" d="M684.74,632.922c-23.573,1.465-42.77,20.644-44.234,44.235
			c-1.719,27.528,20.105,50.38,47.242,50.38l2.615-0.073h56.52l0.218-1.135c-6.99-2.884-11.996-10.724-11.996-19.951v-25.304h-0.024
			l0.024-0.892C735.105,653.025,712.259,631.21,684.74,632.922z"/>
		<path style="fill:#616E7D;" d="M636.814,362.973c-16.159-14.97-40.276-25.055-65.725-25.561l-0.605,93.922L636.814,362.973z"/>
		<path style="fill:#616E7D;" d="M553.417,336.777c-66.494,0-115.595,53.909-115.595,120.396
			c0,66.485,53.888,120.397,120.394,120.397c46.607,0,89.97-27.537,105.947-63.059l-108.326-57.338V336.838L553.417,336.777z"/>
		<polygon style="fill:#AAD4C8;" points="608.109,467.06 632.826,388.304 615.487,406.125 598.063,461.677 		"/>
		<polygon style="fill:#AAD4C8;" points="595.067,460.07 610.355,411.402 593.009,429.213 585.002,454.687 		"/>
		<path style="fill:#AAD4C8;" d="M647.23,488.009l24.383-77.696c-2.057-5.05-4.454-9.898-7.184-14.537l-27.27,86.85L647.23,488.009z
			"/>
		<path style="fill:#AAD4C8;" d="M660.272,494.996l18.423-58.672c-1.022-7.193-2.778-14.232-5.156-21.001l-23.337,74.28
			L660.272,494.996z"/>
		<path style="fill:#AAD4C8;" d="M669.144,499.753c7.565-14.631,10.567-31.813,10.567-49.409c0-1.891-0.061-3.771-0.188-5.646
			l-16.286,51.89L669.144,499.753z"/>
		<path style="fill:#AAD4C8;" d="M611.08,468.655l10.071,5.377l30.212-96.252c-1.319-1.489-2.669-2.938-4.073-4.339l-9.332,9.59
			L611.08,468.655z"/>
		<polygon style="fill:#AAD4C8;" points="587.877,434.5 573.982,448.774 582.031,453.095 		"/>
		<path style="fill:#AAD4C8;" d="M634.188,481.028l27.936-89.017c-2.505-3.949-5.253-7.723-8.206-11.278l-29.8,94.911
			L634.188,481.028z"/>
	</g>
</g>
</svg>
