<?xml version="1.0" encoding="iso-8859-1"?>
<!-- Uploaded to: SVG Repo, www.svgrepo.com, Generator: SVG Repo Mixer Tools -->
<svg fill="#000000" height="800px" width="800px" version="1.1" id="Layer_1" xmlns="http://www.w3.org/2000/svg" xmlns:xlink="http://www.w3.org/1999/xlink" 
	 viewBox="0 0 500 500" xml:space="preserve">
<g>
	<g>
		<path d="M468.664,52.716c-2.208,0-4,1.788-4,4v316.192H35.332V56.716c0-2.212-1.792-4-4-4c-2.208,0-4,1.788-4,4v320.192
			c0,2.212,1.792,4,4,4h437.336c2.208,0,4-1.792,3.996-4V56.716C472.664,54.504,470.872,52.716,468.664,52.716z"/>
	</g>
</g>
<g>
	<g>
		<path d="M484.288,21.476H15.716c-2.208,0-4,1.788-4,4v31.24c0,2.212,1.792,4,4,4H414c2.208,0,4-1.788,4-4c0-2.212-1.792-4-4-4
			H19.716v-23.24h460.568v23.24h-31.14c-2.208,0-4,1.788-4,4c0,2.212,1.792,4,4,4h35.14c2.212,0,4-1.792,4.004-4v-31.24
			C488.288,23.264,486.496,21.476,484.288,21.476z"/>
	</g>
</g>
<g>
	<g>
		<path d="M496,21.476H4c-2.208,0-4,1.788-4,4c0,2.212,1.792,4,4,4h492c2.208,0,4-1.788,4-4C500,23.264,498.208,21.476,496,21.476z"
			/>
	</g>
</g>
<g>
	<g>
		<path d="M250,1.952c-2.208,0-4,1.788-4,4v15.62c0,2.212,1.792,4,4,4s4-1.792,4-4.004V5.952C254,3.74,252.208,1.952,250,1.952z"/>
	</g>
</g>
<g>
	<g>
		<path d="M250,372.908c-2.208,0-4,1.788-4,4v117.14c0,2.212,1.792,4,4,4s4-1.792,4-4v-117.14
			C254,374.696,252.208,372.908,250,372.908z"/>
	</g>
</g>
<g>
	<g>
		<path d="M363.24,490.048H136.76c-2.208,0-4,1.788-4,4c0,2.212,1.792,4,4,4h226.48c2.208,0,4-1.788,4-4
			C367.24,491.836,365.448,490.048,363.24,490.048z"/>
	</g>
</g>
<g>
	<g>
		<path d="M93.848,179.92c-1.564-1.564-4.092-1.564-5.656,0l-58.388,58.388c-1.564,1.564-1.564,4.092,0,5.656
			c0.78,0.78,1.804,1.172,2.828,1.172s2.048-0.388,2.828-1.172l58.388-58.388C95.412,184.012,95.412,181.484,93.848,179.92z"/>
	</g>
</g>
<g>
	<g>
		<path d="M183.6,269.668l-89.752-89.744c-1.564-1.564-4.092-1.564-5.656,0c-1.564,1.564-1.564,4.092,0,5.656l89.752,89.744
			c0.78,0.78,1.804,1.172,2.828,1.172c1.024,0,2.048-0.392,2.828-1.172C185.164,273.76,185.164,271.232,183.6,269.668z"/>
	</g>
</g>
<g>
	<g>
		<path d="M203.204,141.172c-1.564-1.564-4.092-1.564-5.656,0l-62.476,62.476c-1.564,1.564-1.564,4.092,0,5.656
			c0.78,0.78,1.804,1.172,2.828,1.172c1.02,0,2.044-0.392,2.828-1.172l62.476-62.476
			C204.768,145.264,204.768,142.736,203.204,141.172z"/>
	</g>
</g>
<g>
	<g>
		<path d="M394.956,179.696c-1.564-1.564-4.092-1.564-5.656,0l-62.944,62.952c-1.564,1.564-1.564,4.092,0,5.656
			c0.78,0.78,1.804,1.172,2.828,1.172c1.024,0,2.048-0.392,2.828-1.172l62.944-62.952C396.52,183.788,396.52,181.26,394.956,179.696
			z"/>
	</g>
</g>
<g>
	<g>
		<path d="M351.88,289.836L203.204,141.172c-1.564-1.564-4.092-1.564-5.656,0c-1.564,1.564-1.564,4.092,0,5.656l148.676,148.664
			c0.78,0.78,1.804,1.172,2.828,1.172c1.024,0,2.044-0.392,2.828-1.172C353.444,293.928,353.444,291.4,351.88,289.836z"/>
	</g>
</g>
<g>
	<g>
		<path d="M470.908,255.652l-75.952-75.956c-1.564-1.564-4.092-1.564-5.656,0c-1.564,1.564-1.564,4.092,0,5.656l75.956,75.956
			c0.78,0.78,1.804,1.172,2.828,1.172c1.02,0,2.044-0.392,2.824-1.172C472.472,259.744,472.472,257.216,470.908,255.652z"/>
	</g>
</g>
<g>
	<g>
		<path d="M333.436,140c-2.208,0-4,1.788-4,4c0,10.816-8.8,19.616-19.612,19.616s-19.612-8.8-19.612-19.616
			s8.796-19.612,19.612-19.612c4.08,0,7.984,1.24,11.3,3.58c1.804,1.284,4.304,0.84,5.576-0.956c1.272-1.808,0.844-4.304-0.96-5.576
			c-4.668-3.3-10.172-5.048-15.916-5.048c-15.224,0-27.612,12.388-27.612,27.612s12.384,27.616,27.612,27.616
			c15.228,0,27.612-12.388,27.612-27.616C337.436,141.788,335.644,140,333.436,140z"/>
	</g>
</g>
</svg>