<?xml version="1.0" encoding="utf-8"?>
<!-- Generator: Adobe Illustrator 27.5.0, SVG Export Plug-In . SVG Version: 6.00 Build 0)  -->
<svg version="1.1" xmlns="http://www.w3.org/2000/svg" xmlns:xlink="http://www.w3.org/1999/xlink" x="0px" y="0px"
	 viewBox="0 0 1000 1000" style="enable-background:new 0 0 1000 1000;" xml:space="preserve">
<g id="BG">
	<rect style="fill:#FFFFFF;" width="1000" height="1000"/>
</g>
<g id="Object">
	<g>
		<path style="fill:#7989AF;" d="M766.426,464.359c-0.013-0.171-0.042-0.332-0.071-0.492c-0.249,0.011-0.495,0.022-0.739,0.032
			C765.842,464.082,766.107,464.238,766.426,464.359z"/>
		<path style="fill:#7989AF;" d="M760.713,464.394c0.141-0.087,0.267-0.183,0.385-0.282c-0.134,0.007-0.273,0.013-0.404,0.02
			C760.703,464.22,760.695,464.302,760.713,464.394z"/>
		<path style="fill:#7989AF;" d="M766.355,463.867c11.377-0.49,27.008-0.811,30.696,1.968c-5.663-4.268-25.204-3.437-31.591-3.764
			C765.956,462.538,766.229,463.154,766.355,463.867z"/>
		<path style="fill:#7989AF;" d="M761.503,461.859c-2.646-0.105-5.283,0.016-7.916,0.365c0.601,0.647,0.946,1.408,1.111,2.222
			c0.329-0.041,0.66-0.087,0.994-0.096c1.182-0.032,2.913-0.117,5.001-0.218C760.6,463.236,760.902,462.491,761.503,461.859z"/>
		<path style="fill:#7989AF;" d="M764.598,462.026c-0.921-0.098-1.844-0.153-2.768-0.162c0.23,0.928-0.057,1.681-0.732,2.248
			c1.378-0.067,2.897-0.141,4.518-0.212C765.036,463.434,764.731,462.787,764.598,462.026z"/>
		<path style="fill:#7989AF;" d="M747.157,457.458c-7.343,1.428-14.537,3.471-21.598,5.933c0.361,1.479-2.357,4.038-3.046,1.076
			c-1.744,0.562-3.373,1.385-4.886,2.466c1.287,3.89,5.137,0.941,8.005,1.972c-0.295,0.343-0.587,0.686-0.882,1.026
			c-0.944,0.384-1.593,1.127-2.254,1.858c-2.019,0.409-7.635-1.168-8.97-2.496c-4.847,2.882-9.5,6.088-14.084,9.37
			c4.257-0.594,8.577-1.081,12.896-1.273c13.814-6.813,24.555-9.461,39.325-12.379C750.352,462.732,745.011,461.107,747.157,457.458
			z"/>
		<path style="fill:#7989AF;" d="M751.967,460.554c5.135-1.89,10.288-3.716,15.473-5.466c-5.871,0.356-11.734,0.926-17.521,1.895
			C750.491,458.23,751.174,459.421,751.967,460.554z"/>
		<path style="fill:#7989AF;" d="M883.329,457.719c0.237,0.442,0.386,0.816,0.398,1.08
			C883.712,458.485,883.567,458.12,883.329,457.719z"/>
		<path style="fill:#7989AF;" d="M914.121,470.561c0.031,0.088,0.067,0.183,0.07,0.241
			C914.188,470.735,914.16,470.652,914.121,470.561z"/>
		<path style="fill:#7989AF;" d="M793.778,448.947c-1.997-1.372-4.109-2.18-6.335-2.434
			C789.558,447.316,791.648,448.198,793.778,448.947z"/>
		<path style="fill:#7989AF;" d="M890.137,442.128c-0.889,1.17-1.085,1.02-2.744-0.308c0.132-0.233,0.29-0.439,0.434-0.658
			c-8.958-3.766-18.922-6.454-28.488-8.163c0.571,1.917-1.872,1.824-2.902,1.648c-0.768,0.818-1.424,1.721-1.97,2.71
			c-0.658,0.491-1.266,0.526-1.821,0.107c-0.992-0.071-1.983-0.142-2.975-0.215c-2.237-4.625,4.328-3.686,6.828-4.063
			c0.009-0.231,0.035-0.455,0.078-0.661c-22.771-3.478-47.149,1.312-69.166,7.21c-0.761,1.296-1.878,1.602-3.353,0.921
			c-9.525,2.656-18.901,5.809-28.177,9.23c-3.702,1.461-7.404,2.92-11.09,4.418c8.837-1.021,17.873-1.177,26.749-0.583
			c6.742-2.191,13.385-4.998,20.538-4.68c0.265-0.181,0.532-0.178,0.8,0.012c0.304,0.016,0.605-0.021,0.902-0.105
			c-2.13-0.749-4.22-1.631-6.335-2.434c-0.681-0.077-1.371-0.107-2.072-0.08c0.747-1.59,1.431-1.565,2.054,0.073
			c0.006,0.002,0.012,0.005,0.018,0.007c2.226,0.253,4.338,1.061,6.335,2.434c7.525-1.574,44.52,2.331,48.034,8.819
			c-3.533-6.549-31.075-11.442-37.981-12.583c10.128-2.141,23.277-5.001,35.75-5.46c0.041-0.015,0.066-0.034,0.113-0.047
			c0.014,0.015,0.016,0.028,0.028,0.043c8.269-0.292,16.235,0.474,22.815,3.22c3.188,1.33,18.177,10.382,20.792,14.779
			c-1.818-3.387-9.531-11.269-12.203-12.738c1.796,0.377,3.558,0.877,5.286,1.499c0.021,0.171,0.124,0.206,0.311,0.101
			c6.831,2.194,15.437,4.724,21.237,8.935c2.191,1.59,15.122,12.619,16.162,15.046c-0.693-1.984-8.042-11.42-10.053-13.044
			c6.264,3.652,51.181,40.891,46.153,44.366c5.471-2.022-20.746-34.702-22.066-35.972
			C917.217,455.392,904.05,447.974,890.137,442.128z M758.766,452.853c1.36-1.636,1.648-1.62,3.083,0.167
			C760.823,452.963,759.794,452.908,758.766,452.853z M793.042,446.831c-1.174-0.084-1.718-0.619-1.627-1.6
			C791.996,444.125,795.454,445.629,793.042,446.831z M821.188,435.069c-0.398-0.338-0.309-0.441,0.265-0.306
			C821.366,434.866,821.277,434.968,821.188,435.069z M882.541,446.182c0.341-0.996,1.005-1.673,1.981-2.05
			C885.089,446.07,884.993,446.171,882.541,446.182z"/>
		<path style="fill:#7989AF;" d="M839.292,440.524c0.603-0.18,0.737-0.45,0.431-0.805c-0.047,0.001-0.094,0.003-0.141,0.004
			C839.074,439.908,838.964,440.173,839.292,440.524z"/>
		<path style="fill:#7989AF;" d="M622.879,543.309c0.96,2.004,1.922,4.004,2.941,5.976c0.368-1.045,1.015-1.931,1.943-2.663
			c2.71-6.017,6.442-11.488,10.683-16.52c2.077-1.561,3.823-3.577,5.69-5.375C635.432,529.437,627.772,535.472,622.879,543.309z"/>
		<path style="fill:#7989AF;" d="M687.963,490.645c7.754-4.662,15.732-8.974,23.835-12.992c-4.349,0.251-8.695,0.804-12.982,1.461
			c-12.334,8.848-26.971,20.535-42.298,23.49c-3.087,2.443-6.106,4.957-9.043,7.583c1.952,1.076-1.021,2.994-0.933,0.838
			c-5.93,5.378-11.534,11.173-16.362,17.569c11.629-7.841,22.697-13.236,33.874-21.703c6.209-4.701,12.887-8.472,20.051-11.545
			c0.048-0.955,0.882-1.805,1.133-0.441c15.005-5.99,33.935-8.197,50.18-7.56c3.961,2.598,6.294,2.685,7.002,0.256
			C727.615,479.954,703.764,488.754,687.963,490.645z"/>
		<path style="fill:#7989AF;" d="M684.986,582.531c-0.154-0.288-0.435-0.514-0.956-0.679c-1.472-0.471-2.74-1.817-4.488-0.928
			c-0.274-0.215-0.549-0.428-0.825-0.642c-1.615,10.948-3.325,16.726-1.832,27.729c3.901,2.628,7.877,5.122,11.906,7.528
			C685.948,602.852,682.157,596.055,684.986,582.531z"/>
		<path style="fill:#7989AF;" d="M593.358,565.574c-0.098,0.206-0.265,0.354-0.487,0.45c-0.295,0.13-0.672,0.185-1.067,0.226
			c-0.142-0.137-0.306-0.188-0.498-0.151c-0.19,0.494-0.409,0.985-0.745,1.305c10,26.384,27.7,51.933,52.367,66.659
			C619.913,616.102,601.656,594.01,593.358,565.574z"/>
		<path style="fill:#7989AF;" d="M494.065,305.567c1.396,0.329,2.806,0.587,4.228,0.768c-0.185,0.661-0.363,1.323-0.391,1.988
			c11.312,0.745,38.614-2.068,47.211,2.827C533.514,304.589,507.793,305.56,494.065,305.567z"/>
		<path style="fill:#7989AF;" d="M585.59,524.158c-0.148-0.962-0.295-1.924-0.436-2.889
			C584.395,522.133,584.557,522.579,585.59,524.158z"/>
		<path style="fill:#7989AF;" d="M585.005,442.946c-0.05-1.277-0.215-2.514-0.848-3.604
			C584.791,440.433,584.955,441.671,585.005,442.946z"/>
		<path style="fill:#7989AF;" d="M712.162,558.019c0.193-0.162,0.385-0.326,0.594-0.453
			C712.56,557.685,712.361,557.839,712.162,558.019z"/>
		<path style="fill:#7989AF;" d="M737.12,561.958c0.177-0.171,0.343-0.349,0.537-0.511
			C737.476,561.572,737.297,561.753,737.12,561.958z"/>
		<path style="fill:#7989AF;" d="M452.268,613.663c-0.382-0.117-0.565,0.025-0.551,0.427
			C452.407,614.3,452.59,614.159,452.268,613.663z"/>
		<path style="fill:#7989AF;" d="M545.063,542.367c0.15,0,0.343,0.059,0.437-0.012C545.769,542.148,544.823,541.32,545.063,542.367z
			"/>
		<path style="fill:#7989AF;" d="M333.778,557.713c0.038-0.03,0.075-0.063,0.113-0.09
			C333.853,557.652,333.815,557.682,333.778,557.713z"/>
		<path style="fill:#7989AF;" d="M595.79,660.143c0.098-0.089,0.196-0.178,0.287-0.263c-0.078-0.14-0.139-0.256-0.203-0.373
			C595.556,659.682,595.529,659.892,595.79,660.143z"/>
		<path style="fill:#7989AF;" d="M334.158,557.452c0.16-0.086,0.323-0.165,0.498-0.21
			C334.478,557.292,334.315,557.366,334.158,557.452z"/>
		<path style="fill:#7989AF;" d="M344.488,638.81c-0.033-0.072-0.068-0.145-0.1-0.218
			C344.42,638.664,344.454,638.737,344.488,638.81z"/>
		<path style="fill:#7989AF;" d="M344.15,637.998c-0.043-0.113-0.09-0.228-0.128-0.34
			C344.06,637.771,344.107,637.885,344.15,637.998z"/>
		<path style="fill:#7989AF;" d="M455.252,392.236c0.024,0.012,0.042,0.027,0.064,0.04
			C455.419,392.162,455.426,392.127,455.252,392.236z"/>
		<path style="fill:#7989AF;" d="M885.717,520.246c-13.056-3.794-63.615,26.605-60.75-8.43c-1.355,0.859-2.786,0.944-4.29,0.253
			c-1.058,7.475,4.347,14.112,10.316,17.967c-4.719,3.478-12.144,11.655-19.002,7.509c-0.436,0.263-0.766,0.053-1.129-0.647
			c-2.5-1.552-7.357-1.92-9.183-4.413c3.248-3.303,5.977-15.473,1.301-19.99c5.151,5.626-8.454,22.932-18.191,22.771
			c-10.569-0.171-28.1-11.262-21.29-23.659c-0.188-0.02-0.357-0.164-0.517-0.375c-4.28,7.153-0.697,15.96,5.192,20.469
			c-0.007,0.076-0.019,0.158-0.03,0.24c1.09,0.295-13.488,10.256-17.13,10.835c-5.761,0.916-16.729,0.121-19.608-5.654
			c-2.56-5.135,2.057-14.294,8.19-15.035c2.28-0.275,3.712-0.114,4.577,0.289c-2.643-1.835-4.667-3.509-9.136-0.346
			c-12.114-2.761-20.825-4.604-33.408-3.179c-0.477,1.979-3.533,3.414-3.393,0.466c-18.237,3.384-39.003,14.793-52.029,27.471
			c0.185,0.811-0.603,2.055-1.538,1.611c-2.146,2.315-3.787,5.101-5.608,7.676c1.076-0.271,1.593,0.213,1.547,1.449
			c-0.354,1.385-2.36,6.529-4.628,3.213c-0.188,0.329-0.375,0.674-0.564,1.022c-0.165-0.249-0.318-0.496-0.476-0.743
			c-0.32,0.884-0.624,1.778-0.93,2.669c1.36,2.175,2.763,4.319,4.205,6.435c2.587-9.008,10.149-14.411,16.154-20.718
			c-4.045,4.239-11.629,19.571-12.036,26.5c2.267,3.064,4.628,6.049,7.082,8.947c0.887-8.785,3.793-15.551,10.112-22.016
			c4.518-4.628,19.918-19.832,26.459-19.589c-4.77-0.226-20.197,16.495-23.778,20.96c-5.949,7.422-10.227,16.335-7.85,26.23
			c1.803,2.103,3.844,3.946,6.125,5.533c-7.603-15.59,6.088-29.713,15.974-36.761c-3.577,2.566-8.231,8.785-9.223,13.225
			c0.073,0.032,0.146,0.064,0.217,0.094c-0.103,0.114-0.208,0.229-0.313,0.343c-1.503,10.1-4.091,17.825-0.105,28.138
			c1.247,0.93,2.497,1.852,3.759,2.754c-1.678-9.411,4.008-16.04,6.78-24.368c-0.073-0.057-0.146-0.114-0.219-0.171
			c-0.066-0.299-0.142-0.597-0.227-0.892c0.277-0.032,0.558-0.043,0.83-0.096c0.818-2.651,1.278-5.626,3.49-6.541
			c-1.325,0.551-2.345,4.918-2.541,6.305c1.929-0.546,1.647-2.557,1.846-4.2c1.881,1.627,3.73,3.291,5.544,4.993
			c2.422-6.065,5.941-11.324,8.896-17.016c-2.822,5.434-3.149,15.124-4.854,21.714c1.065,0.697,1.974,1.568,2.726,2.61
			c-0.162,0.693-0.127,1.511-1.085,1.689c0.004,0.08,0.009,0.158,0.012,0.238l-0.007-0.135l-0.002-0.003
			c-0.555-0.834-1.337-1.369-2.342-1.6c-2.872,9.118-0.482,22.044,1.79,30.835c0.422,0.245,0.854,0.476,1.28,0.718
			c-0.7-1.006-0.64-2.207-0.708-3.373c0.653,0.329,1.307,0.656,1.96,0.982c0.727,1.248,0.624,2.222-0.306,2.921
			c1.195,0.672,2.386,1.353,3.59,2.011c-5.921-12.375-1.664-32.684,6.143-43.276c-0.542-0.107-1.065-0.274-1.572-0.505
			c-0.215,0.108-0.43,0.215-0.644,0.322c0.201-0.121,0.405-0.245,0.605-0.368c0.382-1.129,1.666-1.488,2.583-0.67
			c0.038-0.046,0.071-0.106,0.109-0.155c1.75-6.069,3.751-11.676,5.732-15.09c0.555-1.075,1.195-1.978,1.961-2.623
			c0.199-0.18,0.397-0.334,0.594-0.453c-0.209,0.127-0.401,0.291-0.594,0.453c-0.645,0.583-1.302,1.487-1.961,2.623
			c-2.306,4.467-3.183,11.793-5.732,15.09c-3.017,10.468-5.283,22.271-5.383,26.411c-0.21,8.618,2.214,13.698,4.965,21.835
			c4.356,2.226,8.778,4.333,13.259,6.328c-3.99-10.606-6.961-20.129-5.741-31.63c0.462-4.353,1.927-24.032,6.753-26.838
			c-4.6,2.607-4.237,25.11-4.045,29.633c0.508,12.048,5.293,20.387,10.053,30.915c0.823,0.235,1.643,0.697,1.52,1.545
			c3.954,1.609,7.943,3.146,11.986,4.584c-13.005-19.811-12.144-43.224-5.638-65.164c-0.926-0.393-0.832-0.66-0.119-1.894
			c0.215,0.24,0.386,0.498,0.519,0.771c0.658-1.682,1.083-3.474,1.652-5.188c-0.903,0.327-3.771-0.565-2.806-1.516
			c1.336-0.841,2.44-0.8,3.306,0.124c0.467-1.405,1.268-2.626,2.368-3.689c0.177-0.205,0.356-0.386,0.537-0.511
			c-0.194,0.163-0.36,0.34-0.537,0.511c-1.881,2.174-3.519,8.474-4.193,11.429c0.011,0.087,0.028,0.169,0.034,0.256
			c-0.034-0.011-0.057-0.021-0.091-0.032c-4.324,23.442-4.227,48.976,12.948,67.61c3.271,1.058,6.559,2.081,9.882,3.035
			c-9.455-14.63-14.258-37.145-9.599-54.419c-0.466-0.146-0.679-0.508-0.633-1.086c0.276,0.099,0.555,0.199,0.832,0.293
			c1.184-4.954,1.785-9.722,3.167-14.669c-0.58,2.075-0.404,10.153-0.881,13.298c1.729,3.567,2.275,1.179,5.121,2.201
			c-0.176,0.206-0.354,0.412-0.53,0.617c-0.566,0.231-0.957,0.679-1.353,1.115c-1.396,0.283-2.621-1.605-3.887-0.601
			c-2.381,14.914,4.667,39.896,13.465,52.472c1.556,0.432,2.125,0.558,1.812,2.486c0.103,0.14,0.206,0.279,0.306,0.42
			c3.3,0.857,6.607,1.682,9.925,2.473c-7.363-14.016-7.171-33.534-4.651-48.555c3.069-18.296,12.786-27.816,23.74-41.868
			c-20.282,25.926-24.382,58.624-16.166,91.098c3.119,0.727,6.243,1.428,9.377,2.105c-8.394-18.611-9.552-35.952-4.747-55.399
			c-0.277,1.115-0.137,8.234-0.103,10.135c0.295-0.99,1.019-1.67,2.171-2.047c2.201,0.281-0.681,4.331-1.36,4.424
			c-0.509-0.112-0.788-0.402-0.836-0.871c-0.757,15.097,4.262,32.028,11.947,45.253c1.737,0.352,3.476,0.684,5.215,1.02
			c-2.69,1.076-5.363,2.171-8.078,3.22c-0.686-0.169-1.39-0.359-2.082-0.535c-0.204,0.466-0.407,0.93-0.608,1.397
			c-0.482,0.411-0.967,0.822-1.449,1.234c-0.843-0.729-1.689-1.458-2.532-2.187c0.352-0.601,0.638-1.049,0.908-1.387
			c-5.844-1.545-11.872-3.279-18.063-5.215c0.012,0.921,0.023,1.844,0.035,2.767l0.055,0.055l-0.055-0.055
			c-3.597-0.189-6.517-2.548-8.351-5.466c-12.242-4.102-25.133-8.369-36.754-14.043c-0.722,0.105-1.666,0.306-2.301,0.661
			c0.635-0.354,1.579-0.555,2.301-0.661c-0.007-0.045-0.007-0.091-0.012-0.139c-58.976-25.753-109.695-64.34-102.892-134.824
			c-1.712,0.642-2.88,0.181-3.497-1.385c0.845-1.374,2.109-1.828,3.791-1.364c2.183-18.927,7.752-35.755,12.681-47.691
			c-0.905-0.345-1.812-0.69-2.72-1.035c-0.365-0.951-0.733-1.899-1.099-2.85c0.366,0.95,0.734,1.899,1.099,2.847
			c0.908,0.345,1.814,0.692,2.72,1.038c2.077-5.023,4.038-9.187,5.583-12.268c14.009-2.333,28.244-9.55,34.741-22.77
			c59.186,3.688,37.133-86.04,2.244-105.097c0.135,3.734-8.826-1.243-9.066-4.495c-42.397-19.548-90.782-24.663-136.904-20.544
			c0.174,0.558,0.263,1.143,0.386,1.718c-0.562-0.151-1.122-0.301-1.684-0.452c-0.073-0.382-0.094-0.763-0.064-1.145
			c-26.244,2.45-52.475,7.089-77.683,14.873c-1.191,1.403-1.986,3.005-2.301,4.881c0.496,0.747,0.733,1.549,0.852,2.375
			c17.042-5.844,36.292-10.215,54.349-10.421c0,0-0.011-0.016-0.019-0.023c0.247-0.569,0.361-1.159,0.338-1.771
			c1.474-0.085,2.312,1.021,3.332,1.784c0.195-0.076,1.998-0.542,2.066,0.126c0.409,0.007,0.814-0.016,1.22-0.021
			c-0.233-0.635-0.08-1.063,0.466-1.282c0.121,0.178,0.242,0.354,0.363,0.53c0.027,0.242,0.048,0.486,0.068,0.729
			c23.573-1.007,47.434-2.331,70.698,3.641c13.949,3.581,26.986,10.86,40.892,15.245c9.137,2.882,34.345,6.351,39.362,13.874
			c-5.183-7.88-26.704-12.03-34.935-15.133c-0.75,0.272-1.929,0.348-2.064-0.756c-8.622-3.339-17.838-8.259-26.187-12.343
			c-2.562-0.124-5.551,0.263-6.127-2.342c-0.32-0.297-0.642-0.592-0.967-0.889c-0.002-0.043-0.007-0.089-0.011-0.135
			c-7.295-2.447-15.02-5.892-22.632-7.155c33.998,1.417,79.123,7.404,106.524,29.999c21.95,18.102,44.723,87.708-3.065,84.032
			c-12.551-7.044-15.919-30.776-1.166-37.632c4.094-1.902,10.214-1.653,14.23,0.532c-1.815-2.78-4.394-5.299-7.429-5.941
			c-9.914-2.096-22.558,7.879-23.031,17.928c0.352,0.169,0.736,0.272,1.104,0.404c-0.176,0.206-0.352,0.411-0.528,0.617
			c-0.336,0.135-0.604,0.354-0.853,0.594c-3.577,12.3,2.731,18.55,9.717,27.583c-7.916,19.048-41.377,23.42-58.96,20.286
			c-0.903,1.095-3.46-0.98-4.301,0.171c-1.118-0.564-2.29-0.992-3.515-1.277c-0.48,1.298-2.379,0.439-2.1-0.786
			c-4.336-1.166-8.716-4.632-12.905-6.38c-0.322,0.562-0.384,1.133-0.187,1.718c1.049,0.123,2.296-0.105,1.899,1.867
			c-0.309,1.536-1.693-1.028-1.762-1.392c-2.521-1.842-2.852,2.055-4.843,1.296c-1.259-0.48-1.83-4.212-0.875-5.243
			c-15.743-9.973-14.605-33.676-2.411-46.22c3.323-3.42,46.934-19.747,46.44-8.29c0.491-8.311-20.081-5.31-22.845-5.074
			c-11.785,1.006-20.652,3.709-29.489,12.062c-12.558,11.872-17.064,43.009,0.551,53.29c-5.706,19.278-22.393,29.336-40.106,36.715
			c-5.809,13.021-9.226,26.881-11.385,40.945c0.487,1.127,0.432,2.201-0.368,3.22c-1.047,9.756-1.467,19.542-1.241,29.345
			c0.828,0.704,3.097,0.88,3.332,2.164l-0.121,0.068c-1.182-0.374-2.214-0.26-3.097,0.341c0.521,7.751,1.246,15.448,2.475,23.134
			c0.494-0.025,0.987-0.048,1.481-0.073c0.352,0.663,0.706,1.325,1.058,1.988c-0.752-0.007-1.501-0.014-2.253-0.019
			c0.174,1.223,0.382,2.443,0.617,3.657c0.26,0.331,0.276,0.88,0.407,1.323c-0.06-0.021-0.117-0.043-0.176-0.064
			c5.252,27.858,18.061,53.697,30.15,79.095c0.224,0.089,0.494,0.27,0.861,0.551c-0.167,0.062-0.331,0.124-0.497,0.185
			c0.833,1.771,1.754,3.499,2.758,5.183c0.533,0.048,0.914,0.356,1.01,0.994c-0.087,0.098-0.169,0.235-0.256,0.354
			c10.501,18.696,22.389,36.525,32.511,55.429c-1.993,0.252-3.977,0.519-5.974,0.757c-0.608-0.729-1.86-2.272-3.366-4.137
			c-0.071,0.002-0.143,0.002-0.192,0.009c-0.13-0.117-0.24-0.215-0.352-0.315c0.057-0.043,0.114-0.103,0.171-0.155
			c-9.15-11.337-17.612-22.912-25.403-35.244c-1.565,0.569-3.037-3.165-3.789-4.143c0.386-0.025,0.761-0.03,1.127-0.014
			c-10.218-15.777-19.258-32.236-26.297-49.673c-0.274,0.5-0.548,1.003-0.825,1.504c-0.309,0.025-0.615,0.048-0.923,0.073
			c-1.106-0.948-0.505-1.821,0.119-2.69c0.432,0.098,0.866,0.197,1.3,0.292c-0.605-1.51-1.218-3.021-1.835-4.527
			c-0.647,0.166-1.248,0.466-1.846,0.781c0.032-1.266,0.062-2.532,0.091-3.795c0.164-0.044,0.333-0.065,0.5-0.094
			c-2.299-5.867-4.198-11.806-5.894-17.869c-1.696,2.045-3.362-0.64-0.334-1.198c-1.501-5.27-2.957-10.551-4.15-15.896
			c-0.079-0.069-0.16-0.368-0.1-0.462c-2.125-9.351-3.533-18.897-4.214-28.46c-1.353-0.233-1.358-4.242-0.309-4.827
			c0,0,0.032,0.018,0.053,0.025c-0.548-14.139,0.226-28.719,2.891-42.613l-0.037-0.03c0,0,0.032-0.011,0.048-0.016
			c2.399-11.369,6.762-21.607,10.469-32.446c-19.112,1.852-39.053-2.386-57.17-8.213c0.05,0.078,0.082,0.171,0.096,0.279
			c-0.32-0.19-0.651-0.359-0.978-0.537c0.023-0.002,0.046-0.007,0.066-0.011c-0.228-0.062-0.441-0.158-0.64-0.293
			c-0.146,0.464-0.935,0.181-0.674-0.354c-22.999-11.977-19.658-42.312-2.761-58.517c-2.921,1.241,1.066-2.22,1.641-2.86
			c-0.022-0.013-0.04-0.028-0.064-0.04c0.174-0.109,0.167-0.074,0.064,0.04c0.386,0.215,0.624,0.508,0.699,0.883
			c9.239-7.073,33.456-13.983,39.256,0.972c5.99,15.448-18.701,10.864-18.874,12.914c0.82-0.146,1.174,0.135,1.986,1.145
			c16.758,5.546,26.637-15.051,11.687-24.491c-11.12-7.02-32.046-2.477-41.354,5.482c0.722-0.247,1.428-0.439,2.002-0.629
			c4.038,1.369-3.524,5.137-3.798,2.226c-15.784,14.258-23.495,47.636-4.849,63.032c-10.894,8.131-24.681,14.05-38.066,13.959
			c-0.567,0.265-1.152,0.489-1.751,0.686c4.74,1.442,9.333,2.742,13.618,5.361c0.384-0.361,0.589-0.617,0.037,0.023
			c3.928,2.406,7.473,5.414,10.325,8.474c6.061-8.968,11.909-18.55,19.622-26.224c0.905,0.396,2.301,0.891,3.163,1.168
			c-7.669,8.392-14.711,17.868-20.339,27.729c0.352-0.183,0.669-0.069,0.953,0.34c-0.297-0.039-0.624-0.043-0.937-0.064
			c0.83,1.131,1.582,2.335,2.274,3.583c6.703-10.723,13.755-20.707,21.989-30.308c0.848,0.292,1.696,0.59,2.542,0.887
			c-8.831,10.138-16.1,21.37-22.777,33.006c3.028,7.258,3.835,15.695,1.885,23.221c0.073,0.187-0.473,1.705-0.651,2.158
			c4.274,3.229,6.313,9.299,5.425,14.979c0.407-0.14,0.855,20.853,1.065,23.668c0.336,0.002,0.669,0.007,1.005,0.009
			c0.32,0.32,0.643,0.642,0.962,0.962h-0.003c1.293,3.666,0.754,6.771-1.62,9.322c1.003,45.657,12.843,91.31,36.45,130.756
			c-14.157-10.314-24.073-37.056-29.066-53.272c-7.718-25.069-8.869-51.769-9.765-77.802c-0.875-0.29-1.616-0.861-1.876-2.121
			c0.331-1.316,0.661-2.63,0.992-3.947c-0.292-0.918-0.941-1.556-1.94-1.911c0.332-0.679,0.665-1.355,0.999-2.034h0.014l0.002-0.003
			c0.621,0.007,1.245,0.012,1.867,0.019c0.295-7.199-0.169-14.326,0.432-21.532c-1.785,6.01-6.902,9.443-12.028,12.459l1.314,0.297
			c-0.48-0.023-0.953-0.117-1.417-0.242c-0.558,0.377-1.145,0.692-1.762,0.939c-4.084,33.034-0.083,64.842,8.787,96.763
			c1.604-1.085,10.414-6.916,6.433,1.883c-2.792,6.168-2.905,0.224-5.702,0.645c5.302,17.178,9.699,35.182,19.16,50.676
			c0.089,0.034,0.181,0.071,0.272,0.106c2.911,6.764,8.172,12.916,13.986,17.352c-3.188,0.03-6.376,0.068-9.571,0.068
			c-1.572-0.882-4.831-2.507-8.97-4.509c0.197,0.304,0.313,0.683,0.338,1.149c-0.352,0.084-0.702,0.169-1.054,0.256
			c-0.292-0.114-0.59-0.215-0.891-0.299c0.08-0.585,0.16-1.172,0.242-1.757c0.007,0,0.009,0.003,0.009,0.003
			c-16.543-7.969-33.624-14.937-49.339-24.43c-11.149-6.737-21.319-14.445-31.027-23.237c-5.316-4.815-19.444-15.967-23.193-24.217
			c-0.034-0.073-0.068-0.145-0.1-0.218c-0.087-0.2-0.164-0.398-0.238-0.594c-0.043-0.113-0.09-0.227-0.128-0.34
			c-0.099-0.289-0.186-0.574-0.254-0.854c0.068,0.281,0.155,0.566,0.254,0.854c0.038,0.112,0.086,0.227,0.128,0.34
			c0.075,0.197,0.15,0.394,0.238,0.594c0.031,0.072,0.066,0.146,0.1,0.218c4.427,9.573,23.462,21.768,30.608,27.277
			c9.545,7.366,20.878,16.792,32.513,20.627c0.66-1.177,1.449-2.128,3.188-1.401c-0.265,1.108-0.841,1.666-1.6,1.906
			c2.77,0.843,5.594,1.55,8.441,2.187c-3.896-3.414-3.366-3.494-7.591-5.231c-0.318-0.601-0.619-1.206-0.923-1.812
			c-20.259-16.203-42.771-32.641-59.335-52.714c-7.836-9.497-13.565-18.917-15.921-31.143c-1.087-5.64-5.608-36.397-0.09-40.792
			c0.037-0.031,0.075-0.061,0.113-0.09c0.087-0.062,0.175-0.122,0.267-0.171c0.156-0.086,0.319-0.16,0.498-0.21
			c-0.175,0.045-0.338,0.125-0.498,0.21c-0.093,0.051-0.182,0.108-0.267,0.171c-0.039,0.028-0.076,0.06-0.113,0.09
			c-3.525,2.956-0.265,16.642,0.074,18.885c1.751-11.301,8.819-21.235,18.966-26.612c0.532,0.331,1.033,0.749,1.577,1.074
			c5.613,8.783,17.926,6.287,26.107,3.844c11.753,4.886,25.252,2.925,33.781-6.662c15.218-3.602,31.548-15.131,17.448-30.385
			c0.576-10.647-1.294-22.508-6.89-31.774c-0.779,0.08-4.276,0.681-4.479-0.766c0.873-0.834,1.929-1.257,3.165-1.266
			c-4.189-6.015-32.497-23.566-38.187-12.825c3.25-5.967,31.566,11.799,33.093,13.787c7.26,9.454,8.938,23.266,7.806,34.791
			c3.313,2.497,7.558,7.877,5.624,12.297l0.019-0.009c1.823,0.843-0.249,2.898-0.768,1.353c-3.851,5.725-13.332,8.469-19.64,9.852
			c-7.253,9.036-26.354,14.178-33.134,1.732c-3.22-5.91-0.56-15.638,5.727-18.31c11.362-4.826,12.354,8.666,7.589,7.761
			c7.032,1.401,3.679-11.833-6.134-10.329c-7.338,1.124-10.645,8.051-11.232,14.461c0.649,0.713,1.572,3.17-0.103,3.577
			c0.371,2.294,1.799,6.193,3.54,7.98c-4.975,1.582-16.977,4.276-19.416-2.795l-6.184-2.863c-0.229,0.103-0.43,0.199-0.619,0.29
			c-5.002-2.946-12.095-17.56-10.371-26.354c-3.056,7.652-1.611,19.662,2.061,24.229c-8.053-0.892-17.665,0.043-24.937,3.64
			c-9.52,0.651-23.024-14.658-9.55-18.87c7.619-2.381,14.82,8.842,5.64,6.835c14.189,3.232,4.056-15.595-7.329-10.348
			c0.165,1.36-0.743,2.399-1.581,0.853c-12.194,7.411-1.289,24.242,10.626,22.471c-3.844,1.604-7.756,3.008-11.744,4.207
			c0.299,0.5,0.462,1.037,0.485,1.611c-1.312-0.471-1.637-0.622-1.335-1.328c-10.29,3.556-26.701,5.684-36.153-1.378
			c-5.293-3.956-10.359-20.773-1.008-21.658c-11.545,0.974-4.79,18.373-0.866,22.947c-17.334-0.816-26.788,12.37-41.912,17.322
			c1.244,1.497-15.999-1.442-17.299-2.246c-8.746-5.403-11.799-14.196-6.34-23.898c-0.115,0.034-0.117,0.003,0.067-0.129
			c-0.025,0.043-0.043,0.086-0.067,0.129c0.605-0.18,4.382-2.222,0.76-1.265c12.025-17.542,25.583,12.686,17.069,11.248
			c8.903,1.604,2.057-16.148-7.455-17.409c-11.28-1.496-17.13,7.69-17.164,18.086c-11.37-1.965-23.23-4.074-33.075,4.84
			c-0.121,1.913-0.244,3.826-0.366,5.738c-1.478,2.356-2.409-2.966-2.276-2.317c0.068-0.409,0.132-0.795,0.192-1.166
			c-6.892,5.231-17.286,11.289-26.059,11.226c-33.68-17.345,12.72-38.989,16.612-29.295c-4.87-12.27-45.884,5.827-25.945,28.392
			c-0.414-0.105-0.818-0.245-1.209-0.423c0.35-1.215-1.57-1.147-2.265-0.9c-2.625-1.167-13.104-8.273-9.095-11.629
			c-4.539,3.702,4.619,10.971,7.27,12.479c-19.946,11.294-33.262,39.508-39.954,60.813l0.98,0.222
			c-0.338-0.016-0.674-0.068-1.008-0.137c-0.64,2.041-1.19,4.088-1.808,6.129c159.891,76.193,347.642,94.697,521.709,70.592
			c-0.416-2.452,0.336-3.75,2.253-3.894c1.017,0.928,1.181,2.091,0.496,3.492c3.184-0.45,6.358-0.914,9.525-1.394
			c0.599-1.486,5.35-2.475,6.333-0.99c2.557,0.169,4.916-0.311,7.07-1.435c0.039-0.51,0.178-0.994,0.416-1.454
			c-0.411,0.073-0.82,0.144-1.234,0.212c-12.336-10.83-25.472-21.499-35.495-34.578c0.021,0.068,0.044,0.137,0.057,0.212v0.003
			c-0.23,3.174-2.353-1.71-0.445-0.734c-11.459-13.705-20.344-30.485-28.582-46.304c-1.149,0.039-1.995,0.615-2.537,1.726
			c-0.599,4.993,4.683,0.642,5.05,3.277c0.149,1.097-7.598,3.2-8.355-0.173c-0.48-2.132-0.932-12.03,3.88-8.661
			c-3.441-6.873-7.211-14.151-9.937-21.482c-0.082-0.217-0.167-0.435-0.246-0.651c-0.118-0.326-0.232-0.652-0.346-0.978
			c-0.331-0.941-0.648-1.877-0.929-2.803c0.285,0.935,0.603,1.869,0.929,2.803c0.115,0.326,0.226,0.65,0.346,0.978
			c0.079,0.217,0.166,0.434,0.246,0.651c7.432,19.68,24.773,42.277,37.23,59.664c0.587-1.52,1.689-2.361,3.3-2.523
			c1.142,0.087-1.801,3.665-2.535,3.595c11.081,15.522,33.337,30.28,41.839,47.077c10.649-1.801,21.205-3.773,31.66-5.917
			c-0.306-0.455-0.464-0.94-0.478-1.451c0.658,0.288,1.314,0.573,1.97,0.861c-0.105,0.114-0.208,0.227-0.313,0.341
			c11.057-2.283,21.989-4.767,32.805-7.425c-0.117-0.005-0.227-0.042-0.35-0.03c7.902-0.734,16.511-4.057,24.167-6.175
			c2.052-1.801,4.534-2.605,7.441-2.407c0-0.011,0.004-0.022,0.007-0.034c0,0,0.014,0.002,0.021,0.005c0,0,0.004,0.016,0.007,0.025
			c-0.012,0.003-0.023,0.003-0.035,0.004c-0.014,0.108-0.034,0.215-0.05,0.322c15.008-4.28,29.91-8.949,44.636-14.118
			c-0.212-0.507-0.247-1.085-0.301-1.657c-0.953,0.338-1.901,0.683-2.861,1.015c-23.49-9.511-46.057-21.685-67.813-34.586
			c-0.594,0.674-2.29-0.411-1.901-1.141c-21.632-13.005-42.157-27.393-59.042-46.32c-0.045,0.002-0.089,0.002-0.132,0.002
			l0.023,0.025l-0.025-0.025h0.002c-0.322-0.32-0.642-0.643-0.962-0.962c-1.618-0.016-3.236-0.032-4.854-0.048
			c0.4-0.651,1.358-1.316-0.048-1.924c0.13-1.149,0.784-1.767,1.591-2.232c-5.33-6.589-9.911-14.105-13.982-21.521
			c-2.72,2.116-3.165-0.608-0.646-1.241c-0.908-1.707-1.758-3.444-2.532-5.215c-1.403,0.722-1.227-1.903-1.108-2.626
			c0.258,0.64-5.851-15.106-4.15-15.466c0.64-0.135,5.339,13.931,5.192,13.577c1.524,0.315,1.961,1.328,1.307,3.037
			c4.493,10.156,10.638,18.942,17.542,27.576c1.616-3.852,5.802,9.912,4.257,5.115c9.374,10.713,21.198,21.607,33.257,29.24
			c0.316-0.539,0.447-1.153,0.427-1.822c-1.016-0.672-2.065-1.293-3.158-1.845c1.292-0.119,2.279,0.692,3.158,1.837
			c0,0.003,0,0.005,0,0.008c0.681,0.451,1.349,0.92,1.995,1.425c-0.084,0.587-0.155,1.179-0.244,1.767
			c31.857,19.825,64.57,36.962,99.583,50.621c-0.224,0.08-0.448,0.158-0.672,0.237c0.551-0.103,1.101-0.203,1.65-0.306
			c-0.432,0.877-0.697,1.401-1.081,1.865c1.617-0.58,3.224-1.184,4.837-1.773c-0.807,0.244-1.617,0.264-2.424-0.027
			c0.412-2.143,1.054-3.62,2.137-4.892c-0.13,1.648,0.853,3.205,0.398,4.879c27.646-10.114,54.745-21.675,80.972-35.065
			c-11.495-13.577-18.06-31.055-16.786-48.521c0.514-7.025,4.893-29.564,13.026-31.477c-8.524,1.929-10.492,30.088-9.724,37.447
			c2.982-8.06,7.445-15.713,11.889-23.042c-0.526-0.389-1.127-0.747-1.872-1.021c1.421-0.432,2.304-0.697,2.923-0.729
			c3.357-5.425,6.938-10.773,10.779-15.871c-0.13-0.448-0.254-0.898-0.386-1.344c-0.503-0.06-1.006-0.117-1.506-0.174l-0.003,0.002
			l-0.004-0.005l0.004,0.002c0.22-1.321,0.805-2.395,1.758-3.222c-0.009-0.016-0.018-0.032-0.027-0.048
			c0.075-0.012,0.086-0.005,0.027,0.045c0.523,0.956,1.053,1.906,1.588,2.852c3.588-4.584,15.435-21.68,22.974-16.767
			c-0.747-2.537-2.656-0.923-4.189-1.703c2.64-3.956,8.62,2.925,6.111-5C891.074,519.519,888.334,519.359,885.717,520.246z
			 M694.934,574.665c0.937-0.469,1.927-0.809,2.971-1.024C697.107,574.539,696.11,574.866,694.934,574.665z M702.297,549.671
			c1.351-0.174,1.609,0.558,0.772,2.196C701.727,551.641,701.47,550.909,702.297,549.671z M705.005,568.979
			c-0.045,0.482-0.197,0.898-0.455,1.225c-0.365,2.653-2.473,2.681-2.717-0.037c-0.825-1.307-0.816-2.601,0.025-3.878
			c-0.656-0.587-1.385-0.955-2.26-0.875c0.875-0.08,1.604,0.288,2.263,0.875C703.789,564.036,705.101,567.955,705.005,568.979z
			 M705.869,580.248c-0.261-0.252-0.231-0.464,0.084-0.635c0.064,0.117,0.128,0.233,0.204,0.373
			C706.065,580.069,705.967,580.159,705.869,580.248z M716.584,563.88c-0.215,0.217-0.487,0.327-0.821,0.327
			C712.649,562.836,718.278,561.102,716.584,563.88z M718.984,571.424c-2.036-2.576,0.649-2.368,0.864-1.355
			C719.56,570.521,719.271,570.974,718.984,571.424z M719.5,568.234c-1.312-0.594-1.351-1.36-0.117-2.294
			c0.039,0.764,0.078,1.527,0.117,2.292c0.344,0.578,0.758,0.961,1.223,1.103c0.155,0.047,0.316,0.068,0.482,0.06
			c-0.165,0.008-0.326-0.013-0.482-0.06C720.259,569.193,719.845,568.81,719.5,568.234z M721.187,587.748l-0.014,0.009
			c-0.009-0.37-0.025-0.74-0.05-1.11C721.445,586.998,721.959,587.343,721.187,587.748z M721.786,613.549
			c-2.039-2.576,0.649-2.368,0.864-1.353C722.361,612.646,722.073,613.099,721.786,613.549z M726.023,590.072
			c-0.087-0.046-0.103-0.227-0.151-0.348c0.309-0.222,0.478-0.142,0.507,0.242C726.258,590.008,726.102,590.113,726.023,590.072z
			 M736.064,560.546c-1.605-0.453-1.785-1.067-0.542-1.842C737.163,559.171,737.344,559.783,736.064,560.546z M735.008,550.347
			l2.251,0.507C736.487,550.818,735.726,550.646,735.008,550.347z M735.89,599.019c-0.854,0.617-1.419,0.505-1.693-0.336
			C735.106,597.935,735.671,598.048,735.89,599.019z M734.882,613.583c0.551,0.649,0.843,1.378,0.88,2.185
			C734.037,615.15,734.012,615.089,734.882,613.583z M737.698,608.722c-0.699,1.39-4.31-0.229-3.451-1.074
			C734.572,607.331,738.61,606.908,737.698,608.722z M738.866,602.671c-1.602-0.453-1.783-1.067-0.542-1.84
			C739.967,601.295,740.146,601.907,738.866,602.671z M761.127,635.065c-0.528,0.288-1.125,0.453-1.451,0.574
			c-0.695-0.06-3.44-1.067-1.291-2.233C760.685,633.074,761.6,633.627,761.127,635.065z M761.277,551.942
			c-0.096,0.944-1.625-1.296-0.642-2.935C761.67,549.609,761.886,550.587,761.277,551.942z M762.779,545.932
			c-0.19,0.027-0.434-0.309-0.649-0.476C761.883,543.019,764.817,545.63,762.779,545.932z M766.342,544.349
			c0.039-0.153,0.077-0.307,0.116-0.459l0.009,0.009C766.426,544.047,766.385,544.197,766.342,544.349z M772.731,553.346
			c-0.37,0.24-0.896,0.242-1.353,0.347c0,0,0.002,0.021,0.002,0.03l-0.004,0.002c1.456,1.693,0.389,5.133-2.157,5.439
			c-1.689-3.875-1.559-4.203,2.157-5.439c-0.007-0.009-0.014-0.018-0.023-0.027c0.009-0.002,0.018-0.002,0.018-0.002
			c0.007-0.311-0.009-0.622-0.045-0.928c-0.265-0.144-3.403-6.783-0.907-6.664c1.243,0.487,1.568,1.659,0.971,3.517
			C773.019,550.071,775.206,551.734,772.731,553.346z M780,593.304c-2.162,0.299,0.155-2.669,0.587-0.51
			C780.396,592.97,780.215,593.274,780,593.304z M508.828,290.759c0.338,0.085,0.487,0.386,0.489,0.752
			C508.188,294.383,506.483,290.174,508.828,290.759z M518.662,288.942c0.471-1.659,0.517-1.677,1.938-0.818
			C519.955,288.396,519.308,288.668,518.662,288.942z M703.46,391.185c1.223-1.015,1.634-0.327,2.111,0.265
			C704.902,392.638,702.455,392.019,703.46,391.185z M698.208,393.662l0.034-0.025c1.314-0.007,1.655,0.521,1.026,1.583
			C698.368,395.216,698.017,394.697,698.208,393.662c-0.72,0.098-1.474,0.114-2.199,0.199
			C696.734,393.776,697.488,393.76,698.208,393.662z M696.627,399.837c0.651,1.7,0.197,3.037-1.364,4.011
			C693.375,404.533,694.273,396.807,696.627,399.837z M691.497,403.738c-0.053,0.21-0.416,0.338-0.642,0.503
			C691.081,404.076,691.444,403.948,691.497,403.738z M503.218,472.301c0.8-4.191,4.452,6.716,0.731,5.887
			C502.448,477.858,503.125,472.796,503.218,472.301z M480.381,383.573c0.745,0.02,1.184,0.85,0.494,1.216
			C479.641,384.839,479.752,383.552,480.381,383.573z M446.539,397.236c-0.338,0.201-0.521,0.068-0.546-0.396
			C446.262,396.871,446.445,397.003,446.539,397.236z M428.473,473.846c-1.375,0.036-2.811-0.528-4.109,0.381
			c-6.552,0.941-4.342-3.236-0.125-5.021c0.475,1.579,0.985,1.52,1.533-0.178c0.343,0.045,0.684,0.089,1.029,0.135
			c0.119,0.857,0.578,1.49,1.293,1.954C428.455,471.994,428.645,472.893,428.473,473.846z M444.847,448.868
			c-2.427,0.084-5.605-1.73-2.285-3.28c1.627,0.281,2.848,1.106,3.661,2.473C445.766,448.347,445.316,448.852,444.847,448.868z
			 M435.96,544.085c0.343,0.053,0.397,0.208,0.167,0.469C435.784,544.499,435.729,544.344,435.96,544.085z M426.981,590.239
			c-0.413-0.978-0.43-0.713,0.329-1.154h0.002C427.848,589.667,427.737,590.054,426.981,590.239z M432.308,589.908
			c-0.133-0.055-0.224-0.163-0.274-0.318c0.448-0.461,0.782-0.454,0.997,0.019C432.79,589.716,432.557,589.846,432.308,589.908z
			 M440.887,612.488c-0.484-0.797-0.352-1.097,0.499-0.537C441.221,612.132,441.054,612.31,440.887,612.488z M461.772,700.857
			c0.048-0.329,0.096-0.658,0.146-0.987c0.279,0.329,0.555,0.658,0.834,0.987C462.426,700.857,462.099,700.857,461.772,700.857z
			 M367.037,650.815c-4.546-1.06-3.922,0.251-7.176-3.972C363.103,646.623,365.585,647.789,367.037,650.815z M407.604,549.243
			c1.286,0.672,1.282,1.396-0.014,2.173C406.251,550.921,406.256,550.199,407.604,549.243z M391.649,552.47
			c1.053-0.233,3.007,2.683,2.721,3.435c-0.482,1.268-4.735,1.406-5.103-0.071C389.649,554.424,390.442,553.302,391.649,552.47z
			 M338.632,548.019c1.604-0.978,2.784-0.782,3.538,0.585C342.323,550.818,337.707,548.933,338.632,548.019z M323.152,587.695
			c0.224,0.094,0.448,0.183,0.672,0.276C323.493,588.801,322.832,588.527,323.152,587.695z M276.725,656.123
			c-0.656-0.544-0.992-1.179-1.008-1.906c0.656,0.291,1.311,0.576,1.97,0.862C277.367,655.429,277.044,655.776,276.725,656.123z
			 M278.569,685.048c0.08,0.313,0.101,0.642,0.148,0.967c-0.651-0.119-1.305-0.235-1.958-0.354
			C276.768,683.681,277.371,683.476,278.569,685.048z M272.069,573.934c1.86,0.587,1.855,1.488-0.016,2.701
			C270.102,576.127,270.106,575.227,272.069,573.934z M224.94,620.747c0.443,0.213,0.288,0.537-0.156,0.327
			C224.835,620.964,224.888,620.857,224.94,620.747z M224.056,599.471c-0.653-0.098-0.968-0.592-1.771-1.878l0.002-0.002
			C223.087,598.879,223.404,599.373,224.056,599.471z M222.324,597.241c0.267,0.027,0.265,0.112,0.023,0.244
			c0.002,0.032,0.007,0.064,0.009,0.099l-0.103-0.046c0.041-0.021,0.062-0.034,0.094-0.053
			C222.34,597.403,222.331,597.323,222.324,597.241z M148.928,566.833c4.66-1.892,9.666,6.15,3.69,4.966
			C149.586,572.944,143.045,569.224,148.928,566.833z M142.931,575.729c-0.089,0.05,2.504,1.161,0.023,1.856v-0.002l-0.002,0.002
			c-0.439-0.281-0.878-0.562-1.319-0.843C142.061,576.394,142.458,575.993,142.931,575.729z M123.431,568.915
			c1.837-2.722,8.097,4.628,2.592,6.175C123.92,574.74,122.215,570.716,123.431,568.915z M92.068,620.846
			c-2.962,6.099-5.444,12.82-7.03,19.411c-1.238-0.567-2.466-1.145-3.697-1.719c3.396-7.386,8.906-14.836,11.351-22.345
			C94.732,616.608,94.524,618.16,92.068,620.846z M98.151,646.114c-1.195-0.519-2.374-1.049-3.565-1.572
			c2.036-6.486,4.794-12.715,6.691-19.242c-0.615,0.279-1.247,0.418-1.895,0.418l-0.208-0.272c0.46-1.7,2.329-8.526,5.663-7.585
			c6.401-11.472,14.877-18.536,22.421-28.856c-9.891,13.531-18.773,30.565-25.73,47.216
			C99.753,639.299,98.627,642.597,98.151,646.114z M107.224,649.964c-1.497-0.626-2.998-1.248-4.489-1.881
			c2.324-10.165,10.064-16.534,13.973-25.471c-0.343,0.781-2.626,6.088-3.403,7.74C110.373,636.504,109.314,643.47,107.224,649.964z
			 M121.406,655.721c-2.484-0.978-4.973-1.954-7.437-2.955c1.714-9.102,6.406-21.65,10.179-30.14
			c3.487-7.848,16.182-38.841,26.059-38.507c-3.289-0.066-10.161,11.657-11.557,15.071c0.501-0.245,1.033-0.464,1.645-0.628
			c0.056,0.61,0.104,1.151,0.143,1.647c3.953-7.688,8.303-14.633,12.648-17.519c-4.863,3.211-9.92,13.899-12.578,18.488
			c-0.018-0.3-0.042-0.626-0.07-0.97c-4.742,9.222-8.912,19.512-11.809,25.159C123.92,635.101,122.947,645.122,121.406,655.721z
			 M136.395,635.997c-2.107,7.624-3.654,15.743-5.011,23.568c-0.704-0.265-1.41-0.526-2.109-0.793
			c2.609-7.695,3.515-23.223,9.049-29.343C140.47,630.667,139.828,632.857,136.395,635.997z M154.296,667.815
			c-2.58-0.884-5.146-1.785-7.708-2.692c0.035-0.917,0.039-1.835,0.055-2.752c-2.663-0.635-2.272-5.875,0.63-4.943
			c7.199-22.995,13.254-49.7,26.555-70.736c-0.487-0.638-0.798-1.365-0.933-2.185c-14.973,23.193-25.099,52.061-31.717,78.691
			c-1.133-0.411-2.272-0.813-3.4-1.227c2.732-8.853,3.871-17.857,8.448-26.109c-1.559,1.305-6.63,2.079-6.728-1.477
			c0.99-2.831,3.202-3.928,6.636-3.291c0.844,0.361,1.586,0.464,1.934,0.864c6.485-16.833,14.436-33.425,24.667-48.347
			c-0.201-1.929,0.681-3.814,2.418-3.423c1.396-1.922,2.751-3.895,4.257-5.764c-1.223,0.258-1.817-0.455-1.785-2.139
			c1.2-1.43,2.207-1.206,3.024,0.668c1.218-1.469,2.663-2.656,4.306-3.596c0.237-0.153,0.471-0.291,0.701-0.401
			c-0.242,0.123-0.467,0.267-0.701,0.401c-3.238,2.093-7.083,7.918-9.263,10.998c3.179,1.367,2.422,9.203-0.933,7.155
			c-6.963,13.108-11.033,31.267-15.741,45.431C155.704,642.933,153.018,657.282,154.296,667.815z M164.689,671.307
			c-1.561-0.51-3.098-1.047-4.652-1.563c1.664-15.679,5.384-30.191,11.888-44.54c4.527-9.991,11.781-30.945,21.132-37.065
			c-10.86,7.094-21.523,43.978-24.292,54.821C166.352,652.33,164.061,661.597,164.689,671.307z M192.314,680.973
			c-0.647-0.875-0.34-1.024,0.537-0.525C192.67,680.626,192.492,680.8,192.314,680.973z M195.23,674.184
			c-0.211-0.566,0.196-0.717,0.414-0.153C195.504,674.081,195.367,674.131,195.23,674.184z M200.767,644.848
			c-1.063,11.328-2.091,26.043-0.423,37.188c-0.964-0.267-1.929-0.537-2.893-0.809c1.917-10.469-2.802-32.46,3.653-41.388
			c-1.13,0.413-3.127,0.966-6.432,1.752c-4.37,1.031,4.2-5.887,3.604-5.11c-1.684,2.195,6.311,1.799,3.433,3.116
			C203.229,640.356,202.931,642.098,200.767,644.848z M189.751,644.608c3.245,0.105,2.203,1.453-0.381,1.81
			c-1.12,4.881-2.276,10.158-2.774,15.101c0.29,0.356,0.551,0.546,0.91,0.601c-0.359-0.055-0.62-0.245-0.91-0.599
			c-0.56,5.523-1.246,10.727-1.115,16.242c-4.991-1.486-9.95-3.01-14.877-4.578c0.055-8.645,6.051-41.766,12.137-47.678
			c-1.673,1.628-2.335,10.549-2.545,13.483c3.876-7.151,5.997-16.854,10.899-23.532c-3.472-0.644-2.882-0.073-5.606-3.606
			c2.715-0.185,4.884,0.619,6.376,2.651c5.868-6.718,4.505-19.194,10.301-24.319c0.197-0.194,0.4-0.377,0.616-0.535
			c-0.222,0.161-0.412,0.355-0.616,0.535c-4.514,4.438-4.45,17.879-5.744,22.674c-2.118,7.857-7.591,16.047-8.305,24.037
			c0.227,0.215,0.448,0.478,0.67,0.768c4.163-15.501,14.948-45.772,28.65-55.779c-5.962,4.356-9.968,17.322-13.305,24.153
			C198.411,618.421,192.297,631.146,189.751,644.608z M217.33,595.653l-0.336-0.163l0.312-0.226L217.33,595.653z M204.512,657.01
			c0.231-0.085,0.461-0.167,0.587-0.329C204.974,656.843,204.743,656.925,204.512,657.01z M213.142,685.48
			c-1.577-0.412-3.154-0.816-4.724-1.236c-2.331-21.078,3.852-51.185,11.289-71.835c0.367-1.25,0.755-2.332,1.164-3.208
			c-2.568,0.109-0.407-3.097,0.486-0.936c-0.165,0.275-0.327,0.596-0.486,0.936c0.01,0,0.017,0.001,0.026,0.001
			c-0.4,1.038-0.796,2.113-1.191,3.207c-3.058,10.4-4.727,32.347-5.907,42.423C212.481,665.511,213.425,675.016,213.142,685.48z
			 M220.399,641.129c-0.105,1.685-2.436-0.151-0.745-1.09C220.178,640.279,220.427,640.643,220.399,641.129z M215.296,675.63
			c-0.224-0.13-0.315-0.494-0.464-0.754c0.528-1.647,1.65-2.564,3.366-2.744C219.012,672.193,216.645,676.4,215.296,675.63z
			 M218.594,687.34C218.299,691.392,217.908,683.585,218.594,687.34L218.594,687.34z M239.34,629.584
			c-0.126-0.146-0.242-0.368-0.375-0.482c0.133,0.114,0.249,0.336,0.377,0.482H239.34z M242.807,692.669
			c-3.398-21.653-4.584-43.263-1.259-64.888c-1.726-0.181-3.213-0.814-4.461-1.901c-3.862,21.409-6.061,43.66-1.33,65.192
			c-5.034-1.17-10.046-2.376-15.028-3.629c-1.686-7.66-0.951-15.462-2.461-23.061c-0.546,0.253-1.023,0.605-1.435,1.056
			c0.412-0.45,0.889-0.802,1.435-1.058c-2.185-10.965,6.543-25.607,6.298-31.774c0.496-2.317,1.148-4.593,1.95-6.828
			c-0.197-0.164-0.396-0.329-0.59-0.496c-0.99,0.231-1.979,0.464-2.969,0.697c0.99-0.233,1.979-0.466,2.969-0.701
			c0.535-0.736,0.889-1.202,1.197-1.431c0.592-1.863,1.152-3.734,1.678-5.615c-0.251-0.327-0.498-1.04,0.185-0.67
			c0.525-2.185,1.456-4.196,2.795-6.033c-0.103-0.267,0.096-0.784,0.294-0.461c4.555-7.245,2.5-26.296,9.5-31.214
			c-4.859,3.4-6.701,35.547-8.298,41.688c-0.448,1.724-0.873,3.433-1.286,5.136c0.339,0.634,0.68,1.269,1.019,1.905
			c-0.339-0.636-0.68-1.271-1.019-1.905c-4.507,18.605-6.663,36.166-1.454,55.239c-0.814-4.516-1.499-9.093-1.49-13.689
			c-0.377-0.199-0.382-0.466-0.011-0.807c0.055-4.081-0.258-8.401,0.235-12.448c-0.549-0.389-0.553-1.061-0.569-1.728
			c0.352,0.082,0.585,0.229,0.745,0.409c4.431-28.159,13.561-49.894,25.442-75.563c-0.37-1.079-0.053-1.741,0.955-1.993
			c1.264-2.729,2.927-5.197,4.956-7.423c0.173-0.234,0.324-0.409,0.441-0.502c-0.155,0.162-0.29,0.337-0.441,0.502
			c-1.189,1.607-3.486,6.079-4.216,7.341c0.69,0.804,1.382,1.608,2.073,2.413c-1.223,1.227-2.365,1.282-3.43,0.165
			c-6.819,14.02-12.363,28.781-17.142,43.612c1.434-0.358,3.286,4.473,3.506,5.291c1.574-10.851,6.485-19.768,8.926-30.277
			c-2.297,9.886-5.062,23.355-5.971,34.823c0.21-0.217,0.478-0.352,0.802-0.407c-0.053,0.11-0.404,1.14-0.832,0.903
			c-0.548,8.284-0.603,16.586-1.149,24.861c0.471,0.151,0.61,0.59,0.937,1.693c-0.35,0.174-0.72,0.292-1.105,0.352
			c-1.015,10.949,0.795,22.981,2.317,33.84C244.609,693.083,243.711,692.873,242.807,692.669z M256.605,695.649
			c-2.496-7.158-2.409-14.589-4.011-21.836c-0.494,0.215-1.081,0.533-1.826,0.962l-0.281,0.014l0.278-0.014
			c0.745-0.429,1.335-0.747,1.828-0.962c-0.295-1.334-0.667-2.66-0.843-4.013c-0.137,0.055-0.274,0.109-0.409,0.169
			c-0.313,0.368-0.626,0.738-0.941,1.106c-0.112,0.971-0.222,1.942-0.331,2.914c-1.207-0.416-2.425-0.338-3.646-0.085
			c-0.084-2.424-0.617-4.751-1.597-6.975c-1.367-1.583-1.367-1.583-0.43-3.451c0.649,0.178,1.3,0.356,1.949,0.537
			c0.828-0.491,1.538-0.313,2.155,0.382c0.969,0.121,1.915,0.329,2.838,0.626c-0.576-7.809,0.317-16.534,0.871-24.455
			c0.413-5.91,0.05-19.203,1.983-27.999c0.056-0.263,0.119-0.51,0.18-0.764c0.023-0.096,0.045-0.195,0.069-0.29
			c0.314-1.26,0.687-2.394,1.124-3.382c0.055-0.125,0.11-0.248,0.167-0.368c0.074-0.154,0.147-0.308,0.224-0.454
			c0.148-0.284,0.301-0.556,0.463-0.806c-0.162,0.25-0.314,0.525-0.463,0.806c-0.077,0.146-0.151,0.299-0.224,0.454
			c-0.057,0.12-0.112,0.244-0.167,0.368c-0.434,0.992-0.807,2.129-1.124,3.382c-0.023,0.095-0.046,0.193-0.069,0.29
			c-0.062,0.251-0.122,0.503-0.18,0.764c-2.829,13.3-0.03,38.267,0.667,48.409c0.875,12.774,3.785,23.506,6.76,35.721
			C259.941,696.36,258.278,695.997,256.605,695.649z M261.987,675.167c-1.296,0.484-2.441,0.471-3.158-0.956
			c1.505-0.861,3.389-2.493,3.276,0.483C262.101,674.854,262.028,675.011,261.987,675.167z M262.638,663.137
			c-0.071-0.064-0.009-0.276-0.009-0.427C263.724,662.307,262.924,663.393,262.638,663.137z M268.856,682.703
			c-0.466,0.798-6.292,6.502-5.757,1.851C263.253,683.224,268.045,682.683,268.856,682.703c0.014-0.023,0.027-0.05,0.041-0.073
			l0.064,0.069C268.927,682.696,268.891,682.706,268.856,682.703z M275.966,699.477c-7.667-19.313-10.855-39.711-11.497-60.391
			c-0.253-8.158-0.16-21.088,1.346-33.452c-1.175,1.667-3.733,4.114-3.814,4.183c-5.068-0.994,3.52-5.64,3.469-5.626
			c0.225-0.058,0.4-0.081,0.539-0.076c1.178-8.931,3.125-17.44,6.247-23.503c0.442-0.876,0.916-1.708,1.43-2.485
			c-0.503,0.77-0.978,1.605-1.43,2.485c-6.987,13.838-5.419,39.402-5.24,53.232c0.295,22.615,4.545,45.486,13.385,66.426
			C278.921,700.003,277.438,699.749,275.966,699.477z M298.574,703.36c0.036-0.003,0.073-0.003,0.11-0.003
			c-13.55-21.191-16.706-44.233-20.623-68.433c-0.402-0.155-0.807-0.308-1.209-0.461c-0.366-0.951-0.733-1.899-1.099-2.847
			c0.366,0.948,0.733,1.896,1.099,2.845c0.402,0.156,0.807,0.309,1.209,0.464c-0.622-3.846-2.797-12.132-0.98-15.946
			c-1.179,2.463,1.059,12.957,2.009,16.337c0.437,0.167,0.873,0.333,1.312,0.5c-0.439-0.167-0.875-0.334-1.312-0.5
			c6.938,24.686,11.497,46.576,24.93,68.889C302.205,703.924,300.384,703.65,298.574,703.36z M320.444,706.598
			c-30.09-30.508-38.522-75.551-33.068-116.736c-6.069-3.467-5.649-9.347,2.157-10.318c1.543-4.708,2.953-11.042,7.464-13.997
			c-3.081,2.057-5.692,9.961-6.73,13.534c7.578-5.222,10.558,2.875-0.51,1.858c-0.628,2.459,4.635,8.718,2.061,10.606
			c-1.33,0.188-2.443-0.142-3.343-0.985c-3.017,45.982,11.977,78.385,34.366,116.362
			C322.042,706.813,321.242,706.708,320.444,706.598z M338.936,708.954c-0.846-1.012-2.114-2.553-3.323-4.02
			c-1.223,2.29-2.468-0.066-2.42-1.138c-2.043-1.188-5.882-3.336-3.844-6.239c-8.087-12.772-13.143-28.722-22.812-40.39
			c-0.457,0.035-0.914,0.05-1.373,0.05c0.265-0.265,0.59-0.45,0.976-0.555c-4.065-5.519,1.348,0.685,0.617-0.229
			c0.443-0.128,0.903-0.211,1.38-0.24c-0.295,0.329-0.624,0.558-0.971,0.735c1.191,1.358,2.345,2.77,3.444,4.203
			c-4.033-16.212-9.128-30.054-9.481-47.331c-0.213-10.352,0.583-52.015,15.955-50.013c-16.913-1.805-11.408,51.883-10.199,61.355
			c1.321,1.383,1.581,2.781,0.781,4.198c1.929,7.146,4.342,14.288,6.568,21.356c0.249,0.18,0.498,0.358,0.75,0.537
			c-0.057,0.398-0.103,0.795-0.153,1.193c8.364,22.302,25.515,38.482,38.198,58.076
			C348.317,710.017,343.619,709.505,338.936,708.954z M312.841,582.318c-2.564,1.595-7.749-0.567-3.663-2.473
			C310.805,580.127,312.027,580.949,312.841,582.318z M317.935,654.807l0.789,0.128l-0.535,0.601L317.935,654.807z M321.104,629.34
			c0,0,1.31-2.509,1.826-0.073c-0.288,0.453-0.576,0.905-0.864,1.353C321.733,630.199,321.344,629.809,321.104,629.34z
			 M327.354,673.091c0,0,0.053,0.133,0.05,0.121C328.241,670.029,327.771,676.59,327.354,673.091z M370.094,712.117
			c-15.352-21.758-30.673-42.559-44.369-65.53c-0.251-0.171-0.535-0.67-0.521-0.978c-0.866-1.872-0.713-3.051,0.281-0.782
			c0.942-0.946,2.143,1.447,1.005,1.787c14.845,22.862,33.239,42.625,47.166,65.8C372.468,712.318,371.28,712.218,370.094,712.117z
			 M329.617,648.493c0.038,0.739,0.073,1.478,0.11,2.216c0.721,0.677,1.563,1.245,1.708,1.237c-0.663,0.034-1.246-0.391-1.705-1.163
			c-0.001-0.025-0.002-0.049-0.004-0.074C328.728,649.771,327.961,648.622,329.617,648.493z M337.28,657.881
			c0.909-0.748,1.474-0.636,1.693,0.336C338.118,658.833,337.554,658.722,337.28,657.881z M381.607,711.792
			c-1.503,0.021-1.661-0.304-0.47-0.974C382.633,710.894,382.789,711.219,381.607,711.792z M386.408,707.494
			c-1.501-1.188-2.281-2.745-2.335-4.669C386.534,703.373,386.472,705.547,386.408,707.494z M388.189,712.533
			c-2.16,0.297,0.153-2.667,0.59-0.512C388.584,712.199,388.404,712.503,388.189,712.533z M400.285,714.252
			c-0.009-0.096-0.037-0.194-0.099-0.309c-0.18-0.114-5.226-4.091-10.313-8.106c-0.169,0.174-0.341,0.348-0.512,0.521
			c0.027-0.297,0.112-0.539,0.242-0.736c-5.987-4.724-11.709-9.92-17.738-14.564c-0.548-0.096-0.897-0.363-1.053-0.802
			c-17.983-13.629-31.256-32.992-40.822-53.148c-6.266-13.2-20.318-40.977-14.502-55.107c-3.471,8.565,4.552,25.341,7.825,33.424
			c6.746,16.657,14.623,32.723,25.853,46.88c1.41,0.567,2.129,1.522,2.159,2.866c5.647,7.685,13.838,14.922,21.16,21.15
			c0.06-0.313,0.071-0.64,0.004-0.985c2.244,0.178,3.433,1.072,2.555,3.382c9.767,9.683,22.302,17.546,33.154,25.949
			C405.557,714.54,402.919,714.398,400.285,714.252z M535.986,655.383c0.738,0.382,1.22,0.964,1.567,1.689
			c-1.91,0.649-3.789,0.48-5.642-0.242C533.587,654.489,533.996,654.357,535.986,655.383z M516.842,629.041
			c-0.363,0.075-0.729,0.151-1.092,0.231C516.047,628.883,516.417,628.835,516.842,629.041z M514.923,632.048
			c1.282-0.007,2.633-0.258,3.549,1.013c0.592-0.012,0.67,0.276,0.235,0.864h-0.002c-0.066,2.372-1.033,4.415-2.9,6.131
			C514.71,637.476,514.548,634.79,514.923,632.048z M514.363,600.966c-1.604,0.224-3.217,0.398-4.826,0.594
			C511.143,601.364,512.756,601.19,514.363,600.966z M509.847,595.618l0.027,0.03c-1.965,4.377-2.024,0.5-2.221,0.571
			C508.364,595.963,509.112,595.808,509.847,595.618z M506.049,584.112c1.008,1.197,1.355,2.539,0.896,4.061
			c-1.192-0.222-2.386-0.441-3.579-0.663c-0.068-1.277-0.272-2.525-0.818-3.698c0.554-0.016,1.104-0.032,1.655-0.048
			C504.817,583.881,505.435,583.996,506.049,584.112z M501.885,559.536c0.074-0.212,0.477-0.313,0.731-0.464
			c1.12,0.204,1.716,2.269,0.51,2.909C502.02,562.121,501.606,561.305,501.885,559.536z M502.395,562.724
			c-0.041,0.148-0.082,0.299-0.123,0.45c0.037-0.153,0.076-0.306,0.114-0.457L502.395,562.724z M499.015,561.049l0.283,0.251
			l-0.345,0.122L499.015,561.049z M499.342,563.771c-0.251,1.115-0.681,1.287-1.282,0.514
			C498.33,563.167,498.759,562.996,499.342,563.771z M498.213,476.604c0.389,0.879,0.571,0.701-0.389,1.241
			C497.658,477.434,497.183,476.314,498.213,476.604z M496.122,568.604c0.068-0.277,0.288-0.515,0.441-0.771
			c0.939,0.763,1.168,2.77-0.023,3.453C495.974,571.607,496.195,568.314,496.122,568.604z M496.005,564.367l0.064-0.377l0.286,0.256
			L496.005,564.367z M497.224,551.835c-0.553,0.162-3.339,0.258-3.289-0.981C494.043,548.05,499.881,551.035,497.224,551.835z
			 M493.028,511.55c0.642-0.478,1.108,0.059,1.435,0.633c6.68,3.033-2.825,6.58-3.769,4.127c0.165-1.41,0.997-2.454,2.493-3.136
			C492.993,512.638,492.372,512.039,493.028,511.55z M496.49,523.02c0.419,0.441,0.835,0.882,1.25,1.323
			c-0.377,1.544-1.362,2.118-2.895,1.824c-0.347-1.107-0.491-2.208,0.071-3.294C495.441,522.922,495.964,522.972,496.49,523.02z
			 M494.92,521.086l0.253-0.283l0.119,0.345L494.92,521.086z M493.46,533.251c1.789-0.391,4.129,1.497,3.872,3.314
			C494.703,538.039,489.522,534.11,493.46,533.251z M497.571,475.335c-2.741,4.959-4.612,11.369-7.128,16.747
			c2.953-3.647,8.303,3.762,3.179,6.31c-3.236,1.611-6.527-0.859-3.531-4.507c0.048-0.713,0.085-1.165,0.188-1.483
			c-3.096,5.67-3.56,12.125-6.177,17.736c-0.667,1.429-1.426-6.266-1.394-6.956C483.151,490.165,492.031,485.343,497.571,475.335z
			 M489.573,560.224c-0.155-0.102-0.312-0.192-0.47-0.27c-1.108-0.544-2.302-0.493-3.582,0.155
			c-0.064,0.295-0.126,0.594-0.183,0.891c-2.656-0.672-1.732-3.599,0.18-0.894c1.282-0.646,2.476-0.697,3.584-0.153
			C489.261,560.032,489.418,560.122,489.573,560.224z M489.298,501.495l0.089-0.062h0.002L489.298,501.495z M485.493,540.162
			c1.097-0.201,2.345,0.855,2.285,2.313c-0.432,0.763-3.757,4.5-4.979,2.66C481.602,542.932,482.5,541.274,485.493,540.162z
			 M482.043,570.944c0.037,0.098-0.066,0.247-0.107,0.373C481.073,571.369,481.875,570.498,482.043,570.944z M481.501,472.218
			c0.34,0.053,0.397,0.208,0.167,0.469C481.325,472.632,481.27,472.477,481.501,472.218z M476.679,460.664
			c0.167-0.249,0.414-0.396,0.741-0.439C479.94,461.389,475.728,463.541,476.679,460.664z M474.204,541.563
			c-3.451,1.559-5.88,3.453-9.815,3.097c-0.005-2.297-0.01-4.596-0.014-6.893c3.579-0.059,6.282-0.048,9.801,0.88
			C474.185,539.618,474.195,540.591,474.204,541.563z M473.726,475.795c-0.774-0.039-1.536-0.208-2.253-0.51L473.726,475.795z
			 M444.196,522.949c-0.985,0.011-1.97,0.022-2.953,0.034c0.965-1.36,1.251-1.6,2.178-0.782c-0.208-1.254-0.268-2.514-0.178-3.782
			c-0.635-0.569-0.921-1.372-0.98-2.324c0.309,0.123,0.567,0.279,0.79,0.457c-3.286-15.929,9.676-32.7,17.864-44.536
			c-5.508,7.921-11.532,25.636-13.776,35.065c-0.329,1.344-3.085,15.69-3.124,15.689C444.077,522.83,444.137,522.89,444.196,522.949
			z M448.433,535.881c1.202,0,1.644,0.72,1.703,1.801c-0.352,0.084-0.704,0.171-1.053,0.258c-0.292-0.117-0.59-0.217-0.893-0.302
			C448.271,537.054,448.351,536.466,448.433,535.881z M476.405,693.174c0.132,0.112,0.249,0.336,0.375,0.482
			C476.651,693.508,476.537,693.286,476.405,693.174z M475.442,690.642c-1.314-0.763-2.224-1.958-1.303-3.656
			c2.971-1.652,4.605,2.315,4.975,4.904C477.881,691.49,476.54,691.28,475.442,690.642z M481.826,712.704
			c-1.673-0.155-2.252-0.935-1.733-2.338c-0.066-0.009-0.13-0.016-0.196-0.025c0.153-1.088,1.963-5.142,3.816-1.89
			C484.157,710.332,483.528,711.749,481.826,712.704z M486.375,712.295c-0.555-0.608-0.429-1.015,0.371-1.216
			C487.312,711.692,487.189,712.099,486.375,712.295z M495.715,702.587c-30.355-28.333-47.232-79.843-47.04-120.281
			c-0.19,40.189,27.085,87.268,48.445,121.533C496.65,703.431,496.179,703.021,495.715,702.587z M458.513,611.659
			c0.624-0.114,1.257-0.185,1.6,0.587C459.738,615.656,455.588,612.191,458.513,611.659z M492.585,688.764
			C492.287,692.818,491.897,685.007,492.585,688.764L492.585,688.764z M528.81,713.396c-2.63-5.098-7.302-11.246-11.637-15.089
			c0.055,0,0.107-0.002,0.162-0.002c-7.354-8.421-17.393-15.058-25.249-23.168c-0.293-0.03-0.585-0.046-0.878-0.046
			c0.144-0.143,0.318-0.253,0.519-0.329c-23.397-24.564-31.434-64.86-35.312-97.261c-1.897-15.83-2.235-29.277-0.05-45.185
			c2.719-19.8,11.821-34.581,17.041-53.436c-5.802,20.218-12.229,49.593-10.371,73.686c0.414,0.265,0.828,0.53,1.239,0.795
			c0.155-0.039,0.333-0.043,0.459-0.126c-0.126,0.082-0.304,0.087-0.459,0.126c-0.307,0.359-0.551,1.136-1.116,0.841
			c1.899,22.695,0.37,48.274,8.156,70.018c0.656-0.153,1.312-0.309,1.965-0.461c0.727,0.615,1.456,1.223,2.185,1.833
			c0.283-0.064,0.564-0.139,0.841-0.233c0.313-0.503,0.626-1.008,0.942-1.506c0,0,0-0.002-0.002-0.002l0.002-0.002
			c0.651,0.347,1.305,0.692,1.959,1.04c0.386,0.722,0.774,1.447,1.161,2.171c-1.078,0.206-1.73,0.786-1.716,1.954
			c1.999,2.653-1.223,6.113-3.921,4.059c4.404,13.839,10.421,29.558,19.406,41c0,0,0.03-0.004,0.044-0.004
			c-0.009,0.009-0.019,0.014-0.028,0.025c9.74,12.409,31.489,23.342,35.632,39.238C529.459,713.354,529.135,713.374,528.81,713.396z
			 M501.026,669.11c-0.13,0.914-0.197,1.842-0.416,2.733c-0.859,3.487-2.503-1.239-2.546-1.655c0.739-0.674,0.994-1.533,0.966-2.504
			c-1.016-0.673-2.066-1.293-3.158-1.848c1.291-0.117,2.278,0.695,3.158,1.84c0,0.003-0.001,0.005-0.001,0.008
			C499.711,668.136,500.38,668.606,501.026,669.11z M500.91,676.878c-0.912,0.766-1.851,0.816-2.818,0.151
			c-0.215,0.107-0.429,0.215-0.645,0.322c0.201-0.124,0.405-0.245,0.605-0.368C498.122,676.777,500.91,674.081,500.91,676.878z
			 M501.477,662.49c-0.078-0.409-0.22-0.807-0.208-1.198C501.282,660.883,502.747,662.067,501.477,662.49z M502.228,680.039
			c0.064,0.117,0.128,0.233,0.204,0.372c-0.091,0.085-0.19,0.171-0.288,0.261c-0.064-0.117-0.188-0.24-0.174-0.348
			C501.981,680.219,502.137,680.132,502.228,680.039z M513.396,690.964l0.052,0.121
			C514.281,687.911,513.835,694.458,513.396,690.964z M532.801,703.069c-0.058,0.188-0.476,0.265-0.722,0.391
			C529.731,702.834,533.413,701.015,532.801,703.069z M540.683,712.503c-10.622-20.569-28.061-36.365-39.689-56.574
			c-11.721-20.371-19.815-46.126-23.298-69.356c-6.197-10.672-4.08-34.468,0.411-49.857c0.007-0.024,0.014-0.048,0.021-0.072
			c0.188-0.64,0.378-1.268,0.573-1.877c0.017-0.052,0.033-0.104,0.05-0.156c0.692-2.143,1.429-4.083,2.193-5.749
			c-0.832,1.881-1.56,3.799-2.193,5.749c-0.017,0.052-0.034,0.104-0.05,0.156c-0.201,0.623-0.392,1.248-0.573,1.877
			c-0.007,0.023-0.014,0.048-0.021,0.072c-11.454,39.957,15.626,92.634,33.128,126.848c-0.057-1.831,2.98,0.263,0.805,1.067
			c-0.151-0.066-0.272-0.148-0.379-0.238c6.636,13.008,16.47,23.753,24.059,36.107c0.185-0.068,0.363-0.146,0.466-0.279
			c-0.103,0.132-0.281,0.21-0.466,0.279c2.715,4.42,6.044,9.911,7.384,11.806C542.298,712.373,541.489,712.437,540.683,712.503z
			 M490.388,610.388c0.125-0.217,0.331-0.347,0.617-0.386c0.535,0.582,0.425,0.969-0.329,1.154
			C490.566,610.898,490.354,610.626,490.388,610.388z M495.727,610.507c0.451-0.461,0.782-0.457,0.997,0.019
			C495.875,610.902,496.131,610.998,495.727,610.507z M501.853,628.906c0.786-0.153,1.52-0.453,2.18-0.958
			c-0.046-0.807,0.13-1.467,0.535-1.977c-0.405,0.51-0.581,1.17-0.535,1.977C503.373,628.453,502.64,628.752,501.853,628.906z
			 M513.147,658.822l0.318,0.096l-0.219,0.258L513.147,658.822z M515.659,666.366c0.038,0.739,0.075,1.477,0.113,2.218
			c0.721,0.677,1.562,1.245,1.706,1.238c-0.66,0.032-1.243-0.393-1.702-1.163c-0.001-0.025-0.003-0.05-0.004-0.075
			C514.771,667.644,514.002,666.495,515.659,666.366z M514.953,657.997c0.537-2.802,2.646,0.313,0.525,1.209
			C514.991,658.937,514.863,658.459,514.953,657.997z M553.238,711.411c-13.76-22.825-29.912-43.521-41.009-67.914
			c-1.646,2.073-4.438,0.72-6.401-0.011c0.464-1.508,0.925-3.144,2.587-3.894c0.194-0.848,0.37-1.712,0.928-2.235
			c-0.558,0.523-0.733,1.387-0.928,2.235c0.283,1.858,1.485,3.007,3.606,3.448c-5.064-11.111-8.529-23.554-11.902-35.285
			c-0.626-0.402-0.742-0.802-0.404-1.478c-1.954-7.221-3.396-14.475-4.65-21.842c-0.88-0.636-0.989-1.255-0.332-1.858
			c-1.945-13.396-3.485-27.251-2.589-40.803c-0.64-0.121-2.964-1.04-2.436-2.119c0.75-0.987,1.671-1.479,2.761-1.469
			c0.087-0.743,1.186-0.583,1.168,0.185c1.156,0.132,1.903,0.752,2.246,1.862c-0.768,0.546-1.538,1.095-2.308,1.641
			c-0.047,5.53-0.119,11.228,0.562,16.719c1.495,1.024,1.614,1.972,0.354,2.845c0.03,0.224,0.06,0.446,0.091,0.67
			c0.606,0.35,0.661,0.758,0.167,1.227c1.936,14.315,4.744,27.777,7.914,41.77c0.528,0.043,1.059,0.087,1.586,0.133
			c0.014,0.29,0.073,0.569,0.18,0.841c-0.315,0.48-0.814,0.711-1.325,0.926c9.068,37.167,32.805,71.837,52.342,104.194
			C554.709,711.269,553.974,711.342,553.238,711.411z M568.32,709.884c-10.985-15.684-25.117-33.386-32.533-51.012
			c2.034,4.826,13.458,16.319,17.743,22.171c6.981,9.539,14.374,18.18,20.839,28.166
			C572.356,709.441,570.338,709.665,568.32,709.884z M614.195,476.165c-0.071-0.064-0.009-0.274-0.009-0.425
			C615.28,475.335,614.481,476.423,614.195,476.165z M583.44,428.728c0.745-1.806,3.668,1.2,0.462,2.011
			c0.043,0.032,0.066,0.071,0.112,0.103l-0.219-0.066c0.041-0.009,0.068-0.027,0.107-0.037
			C583.223,430.21,583.109,429.527,583.44,428.728z M575.851,427.804c-1.211-6.995,10.69,7.034-2.139,2.576
			C574.875,429.621,576.111,429.306,575.851,427.804z M558.96,496.749c0.567-0.521,1.099-0.809,1.609-0.93
			c0.971-5.615,0.606-11.543,1.919-17.235c-1.058,0.384-1.608-0.297-1.654-2.041c-0.098-0.503-0.199-1.008-0.299-1.513
			c0.8-0.005,1.602-0.009,2.402-0.014c-0.012,0.032-0.032,0.05-0.043,0.082c0.057-0.004,0.114-0.009,0.171-0.011
			c1.488-11.18,9.02-20.362,12.432-30.993c-3.569,11.01-8.264,26.765-4.769,35.844c-1.202,0.427-2.699,0.553-3.737-0.34
			c-1.494,5.505-2.703,11.058-4.074,16.696c0.64,0.358,1.264,0.834,1.892,1.266c-0.064,1.789-0.887,2.825-2.468,3.106
			c-0.628,4.751,0.329,9.842-0.518,14.5c0.158-0.866-1.968-10.965-2.052-14.068C558.663,499.987,558.393,498.536,558.96,496.749z
			 M567.768,493.978c-0.507,1.223-1.591,1.541-2.745,1.744C565.427,494.388,566.168,492.036,567.768,493.978z M560.041,588.041
			c-0.971,1.083-1.867,1.204-2.688,0.366C557.82,587.86,559.773,586.489,560.041,588.041z M558.149,484.963
			c-1.886,0.809-2.82,0.754-2.507-1.721C557.6,483.115,557.6,483.115,558.149,484.963z M556.063,477.991
			c0.007,0.322,0.055,0.651,0.014,0.966c-0.423,3.053-1.556,1.12-1.947-0.002C554.773,478.633,555.418,478.311,556.063,477.991z
			 M555.859,534.517c0.043-0.016,0.087-0.025,0.13-0.041c-0.619-0.841-0.194-1.413,1.325-2.656c0,0.768,0,1.534,0,2.301
			c0.254-0.043,0.503-0.069,0.746-0.073c0.243-0.004,0.48,0.014,0.71,0.06c-0.229-0.045-0.467-0.064-0.71-0.06
			c-0.243,0.004-0.492,0.03-0.746,0.073c0,0.542,0,1.085,0,1.627c-0.638-0.521-1.065-0.919-1.325-1.273
			c-0.044,0.016-0.085,0.027-0.128,0.041c-0.064,0.297-0.126,0.597-0.181,0.893C553.025,534.739,553.944,531.812,555.859,534.517z
			 M556.417,559.394c-0.325,1.78-1.824,1.801-3.033,1.892l-0.016,0.039c-0.012,0.002-0.023,0.004-0.032,0.009
			c-0.176,0.729-1.723,4.625-2.491,1.59c0.358-1.154,1.19-1.684,2.491-1.59c0.003-0.016,0.003-0.03,0.007-0.044l0.025,0.034
			l-0.025-0.037l0.041-0.003c0.711-1.408,1.652-2.111,2.831-2.111l-0.002-0.002c0.366-0.283,0.734-0.565,1.102-0.846
			c0,0.327,0,0.654,0,0.983C557.015,559.324,556.716,559.351,556.417,559.394z M557.315,572.071c0,1.31,0,2.619,0,3.929
			C555.176,574.226,555.176,573.794,557.315,572.071z M551.857,536.478c0.722-1.346,1.421-1.255,2.098,0.276
			C553.05,538.386,552.351,538.295,551.857,536.478z M551.718,500.375c0.289-0.587,0.731-0.811,1.367-0.589
			C552.63,499.982,552.173,500.179,551.718,500.375z M542.949,465.248c-6.723,10.515-17.518,38.688-17.72,49.693
			C525.586,494.915,532.696,481.654,542.949,465.248z M516.724,527.803c-0.651,1.673-1.744-0.107-1.682-1.122
			C515.147,524.935,517.204,526.571,516.724,527.803z M518.396,497.471c-2.769,0.105,0.064-1.785,1.166-2.018
			c-0.226,0.665-0.453,1.33-0.676,1.995C518.723,497.448,518.559,497.464,518.396,497.471z M519.496,540.802l0.158-0.329
			l0.222,0.306L519.496,540.802z M523.026,539.844c-0.048,0.139-2.909,1.396-0.56-2.754c-2.027-0.238-2.955-1.168-2.79-2.79
			c1.657-1.451,2.569,1.417,2.713,2.242C523.195,537.607,523.408,538.706,523.026,539.844z M525.606,522.369
			c-11.55,8.51,5.007-2.815-5.949-2.957c0,0-0.045-0.043-0.096-0.091c-0.163-0.014-0.322-0.03-0.484-0.043l0.324-0.11
			c0,0,0.085,0.08,0.157,0.15C519.852,519.305,529.314,519.633,525.606,522.369z M548.08,639.034l0.311-0.228l0.025,0.388
			L548.08,639.034z M559.952,661.868c-0.649-0.878-0.343-1.022,0.537-0.528C560.306,661.519,560.128,661.692,559.952,661.868z
			 M562.932,669.951h0.003c0.386,0.725,0.773,1.447,1.159,2.171C563.707,671.398,563.32,670.674,562.932,669.951z M543.831,616.04
			c7.187,17.158,16.152,33.589,25.481,49.673c1.33-0.268,3.35,4.963,3.448,5.647c-0.057-0.019-0.117-0.032-0.174-0.05
			c2.381,4.061,4.952,8.003,7.366,12.041c0.592-1.627,3.734-1.726,4.083,0.068c0.878,1.3,0.91,5.892,0.069,6.965
			c3.576,5.492,7.383,10.908,11.268,16.18c-1.195,0.165-2.388,0.334-3.585,0.494c-2.004-2.884-7.215-12.247-9.66-16.255
			c-1.513,3.917-4.022-0.322-1.855-2.683c-0.004-0.029-0.012-0.059-0.016-0.091c-7.864-10.848-15.746-21.87-22.805-33.267
			c-0.437,0.322-0.859,0.633-1.234,0.96c-1.924-0.72-2.055-1.938-0.389-3.654c-12.569-21.123-21.582-46.354-25.538-70.578
			c-3.606-1.796-3.309-4.269-3.567-8.216c0.681-0.331,1.364-0.662,2.045-0.994c-2.034-14.31-3.503-29.857-1.326-44.229
			C523.596,553.807,533.294,590.771,543.831,616.04z M539.638,587.78c2.375,0.156,3.508,1.607,3.947,3.785
			C540.618,591.873,539.302,590.611,539.638,587.78z M646.852,698.053c-21.868-12.532-46.519-27.67-60.566-49.556
			c4.355,6.792,21.091,18.374,28.94,24.268c11.228,8.43,22.633,15.725,33.269,24.978
			C647.948,697.85,647.398,697.948,646.852,698.053z M588.182,646.667c-0.787-0.215-1.406-0.67-1.792-1.463l-0.157-0.109
			c-0.699,0.279-1.268,0.706-1.765,1.238c0.498-0.532,1.065-0.96,1.764-1.238l0.001,0c0,0,0.001,0,0.002,0l0.155,0.109
			c0.044-0.009,0.08-0.009,0.121-0.016c-8.28-7.443-14.42-15.849-20.803-24.889c-1.277,2.13-2.694,2.745-4.255,1.84
			c-1.474-1.102,1.66-4.041,2.281-4.706c-17.299-25.495-25.696-58.764-24.386-89.58c0.576-13.565,3.154-55.976,14.546-67.146
			c-3.789,3.656-5.503,16.358-6.84,22.542c1.202-0.135,2.306-0.62,3.316-1.451c-1.693-2.466,3.465-2.615,1.721,0.125
			c-0.484,2.87-1.785,7.484-5.379,2.85c-2.2,11.093-3.213,26.176-2.664,37.232c2.296-0.782,3.512-1.598,5.882-3.044
			c-0.459-0.99-0.268-2.002,0.581-3.04c3.538,0.062,1.823,9.598-0.535,10.357c-1.974,0.633-3.06-2.724-5.816-2.372
			c1.481,22.606,4.061,41.974,12.361,63.455c0.219-0.164,0.473-0.345,0.795-0.564c0,0.861,0,1.723,0,2.584
			c7.581,19.094,20.476,34.512,34.387,49.344c1.52-0.503,1.924,1.218,2.096,2.345c9.052,10.697,20.766,18.86,31.077,28.278
			c6.936,6.339,19.448,17.905,25.775,19.626C628.222,682.875,605.036,661.669,588.182,646.667z M547.529,537.822v0.002
			C546.227,538.377,546.487,536.546,547.529,537.822z M576.94,605.607c1.748-1.536,3.087-1.541,4.02-0.016
			C578.826,612.173,574.562,606.498,576.94,605.607z M586.55,621.371c0.165-0.247,0.412-0.393,0.741-0.437
			C589.811,622.098,585.597,624.248,586.55,621.371z M591.239,633.238c-0.029-0.08,0.08-0.206,0.13-0.313
			c0.343,0.055,0.398,0.21,0.167,0.471C591.432,633.344,591.267,633.316,591.239,633.238z M596.338,634.137
			c1.09,0.256,1.115,1.072,1.024,1.949C596.347,635.789,596.356,634.957,596.338,634.137z M667.271,693.857
			c-11.349-8.41-22.528-17.603-33.075-26.991c-1.531,1.149-4.694-1.25-2.898-2.537c-3.677-3.215-7.459-6.298-11.024-9.642
			c-0.126,0.054-0.258,0.115-0.397,0.182c-0.417,0.203-0.898,0.469-1.473,0.798l-0.281,0.016l0.279-0.016
			c0.576-0.329,1.058-0.595,1.475-0.798c0.139-0.067,0.271-0.128,0.397-0.182c-0.77-0.722-1.541-1.449-2.297-2.189
			c-0.091,0.795-0.183,1.588-0.272,2.383c-1.207-0.414-2.425-0.338-3.645-0.083c-0.085-2.427-0.617-4.753-1.597-6.977
			c-0.93-1.079-1.214-1.431-1.013-2.132c-3.852-4.349-7.704-8.759-11.271-13.348c-0.654,1.318-1.15,0.315-0.114-0.146
			c-21.685-28.093-39.963-66.627-38.689-102.899c-1.419,40.902,28.776,88.141,57.611,116.624c0.494,0.196,0.823,0.537,1.015,1.005
			c2.521,2.516,4.991,5.071,7.546,7.555c2-1.236,2.646-0.558,2.075,1.579c-0.119,0.043-0.235,0.078-0.352,0.114
			c2.449,2.372,4.606,5.03,7.039,7.437c0.061-0.002,0.121-0.016,0.183-0.014c0.013-0.025,0.027-0.051,0.043-0.076l0.064,0.071
			c-0.036-0.003-0.071,0.005-0.107,0.005c-0.025,0.041-0.048,0.085-0.073,0.126c3.081,3.035,6.225,6.008,9.377,8.967
			c0.558-0.274,0.88-0.06,0.964,0.647c-0.064,0.016-0.137,0.041-0.206,0.059c7.516,6.92,14.77,13.892,23.017,19.946
			C668.804,693.515,668.041,693.691,667.271,693.857z M584.084,579.596c0.496-0.379,1.04,0.215,0.352,0.314
			C584.306,579.793,584.196,579.695,584.084,579.596z M597.298,610.5c-1.182,0.836-2.014,0.825-2.5-0.034
			C594.565,609.266,597.963,609.12,597.298,610.5z M644.857,664.915c1.071,0.325,1.569,0.987,1.499,1.993
			c-0.653-0.116-1.307-0.235-1.961-0.354C644.324,665.938,643.972,665.164,644.857,664.915z M685.271,689.733l-2.415-1.255
			c-0.832,0.708-1.675-0.686-1.419-0.964c-18.18-10.919-39.796-29.681-52.36-46.942c12.99,17.86,43.335,35.767,63.398,47.433
			C690.084,688.599,687.673,689.157,685.271,689.733z M681.965,678.263c1.417-1.188,0.923-1.351,2.619-0.07
			c-1.666,1.446-1.156,1.261-2.617,0.073v-0.002H681.965z M690.398,637.734c1.604-0.979,2.783-0.782,3.535,0.585
			C694.081,640.538,689.472,638.641,690.398,637.734z M684.282,633.899c0.834-3.176,0.388,3.375-0.05-0.121
			C684.232,633.778,684.287,633.91,684.282,633.899z M673.063,622.852c0.064,0.117,0.126,0.233,0.204,0.372
			c-0.091,0.084-0.19,0.174-0.288,0.263C672.719,623.236,672.746,623.023,673.063,622.852z M668.888,619.796
			c0.069-0.206,2.857-2.902,2.857-0.103c-0.912,0.763-1.851,0.814-2.818,0.148c-0.215,0.107-0.43,0.215-0.644,0.322
			C668.484,620.044,668.688,619.92,668.888,619.796z M665.015,616.88c-0.932,0.684-1.924,1.024-2.971,1.024
			C662.921,617.235,663.929,616.949,665.015,616.88z M644.827,597.75c0.857,0.597,0.338,0.843-0.27,1.072
			C644.646,598.463,644.738,598.107,644.827,597.75z M625.891,586.086c0.558,0.748,1.154,1.458,1.732,2.189
			c0.05-0.071,0.101-0.14,0.151-0.21c-0.018-0.674-0.03-1.351-0.03-2.027c0.334-0.676,0.668-1.355,1.002-2.034
			c-0.334,0.679-0.667,1.357-0.999,2.034c0.999,0.354,1.646,0.992,1.94,1.911c-0.187,0.743-0.372,1.483-0.56,2.224
			c17.549,21.271,39.405,38.001,61.652,53.943c0.073-0.135,0.156-0.281,0.254-0.448c0.295,0.325,0.484,0.695,0.628,1.081
			c9.58,6.901,20.076,11.694,30.767,16.57c0.702-1.186,1.191-2.475,1.428-3.889c-2.041,0.132-3.805-0.405-5.293-1.614
			c1.767,0.537,3.531,1.079,5.295,1.614c-0.24,1.414-0.729,2.703-1.431,3.889c9.233,4.223,19.231,7.423,29.142,9.733
			c-2.909,0.956-5.846,1.877-8.777,2.8c-43.386-13.776-86.584-45.909-114.232-82.023c-0.558-0.277-1.115-0.553-1.673-0.83
			c0.039-0.423,0.08-0.843,0.119-1.266c-0.265-0.37-0.521-0.745-0.779-1.12c-0.679-0.443-1.246-1.038-1.883-1.545
			c0.638,0.507,1.207,1.102,1.883,1.545C626.833,589.489,624.36,584.076,625.891,586.086z M648.038,616.709
			c-1.184-0.45-2.365-0.9-3.549-1.353c-0.365-0.949-0.731-1.897-1.097-2.848c0.366,0.951,0.731,1.899,1.097,2.848
			C645.672,615.809,646.854,616.259,648.038,616.709z M618.786,580.922c3.611-1.913,6.444-0.992,5.759,2.964
			c-1.277,0.233-2.484-0.053-3.625-0.857C620.479,582.99,616.14,582.323,618.786,580.922z M623.359,602.776
			c0.823,0.811,0.809,1.6-0.039,2.365C624.168,604.375,624.179,603.587,623.359,602.776z M609.172,551.874
			c-0.13,0.249-0.343,0.418-0.642,0.503C608.829,552.292,609.042,552.123,609.172,551.874z M608.224,579.505
			c1.082,0.055,1.464,5.716,0.968,6.372c21.617,45.292,84.416,71.515,127.795,89.813c-7.455,2.288-14.996,4.461-22.592,6.561
			c-46.105-17.224-96.315-41.938-120.9-86.925c-22.814-41.748-30.17-108.811-8.49-152.38c-0.05-1.275-0.215-2.514-0.848-3.604
			c0.633,1.09,0.798,2.327,0.848,3.604c1.883-3.782,4.383-7.347,6.819-10.802c1.586-0.023,3.165,0.073,4.735,0.288
			c-16.481,25.49-20.083,58.647-15.864,88.193c0.907-1.058,2.271-1.808,4.09-2.173c-0.871-7.92,1.052-51.928,8.641-73.121
			c-0.169,0-0.337,0-0.505-0.001c-0.585-1.927-0.071-3.065,1.538-3.417c0.108,0.035,0.195,0.081,0.276,0.131
			c2.48-5.578,5.488-8.791,9.107-8.011c1.52,0.327-7.786,21.648-8.366,23.527c-3.794,12.293-4.877,25.33-5.092,38.15
			c-0.48,28.529,5.194,58.256,16.276,84.525C606.96,579.674,607.483,579.43,608.224,579.505z M601.215,526.087
			c1.087,0.21,2.171,0.432,3.259,0.623c6.045,1.061-5.24,7.35-4.203,6.25C600.273,529.576,600.164,529.368,601.215,526.087z
			 M596.13,523.404c-0.146,0.386-0.199,0.793-0.153,1.223c-0.142-0.345-0.087-0.706,0.1-1.074
			C596.096,523.502,596.112,523.454,596.13,523.404z M604.69,509.317c1.387-8.394-0.923-22.658,1.321-33.591
			c-0.151,0.062-0.302,0.121-0.455,0.183c0.153-0.062,0.304-0.121,0.455-0.183c0.162-1.005,0.379-2,0.656-2.982
			c-0.807-0.759-1.721-1.138-2.722-1.275c1.001,0.137,1.915,0.517,2.722,1.275c3.613-15.005,12.379-26.859,21.189-39.177
			C612.198,455.454,608.896,484.001,604.69,509.317z M610.385,487.242c1.634-0.937,4.075-2.491,3.159,0.955
			C612.248,488.682,611.104,488.668,610.385,487.242z M616.944,543.354c-0.898-0.005-1.252-0.523-1.06-1.559
			c-0.718,0.098-1.474,0.114-2.198,0.199c0.724-0.084,1.481-0.101,2.198-0.199l0.034-0.025
			C617.232,541.764,617.573,542.292,616.944,543.354z M615.248,531.556c-0.02-0.192-0.048-0.382-0.08-0.571
			c-0.724,0.105-1.449,0.214-2.173,0.322c0.725-0.107,1.449-0.217,2.173-0.322c-0.039,0.128,1.783-4.089,3.149-2.356
			C618.583,530.269,617.559,531.245,615.248,531.556z M622.447,558.17c-0.412,0.13-0.565,0.004-0.46-0.379
			C622.431,557.628,622.591,557.768,622.447,558.17z M767.123,653.493c0.983-1.554,1.161-1.545,2.039,0.107
			C768.483,653.566,767.804,653.529,767.123,653.493z M834.084,547.657c2.681-0.459,2.843,1.598,3.423,3.734
			c-3.754,2.617-4.84,1.223-5.669-2.841C832.372,547.715,833.188,547.582,834.084,547.657z M834.758,561.12
			c-0.327,0.409-1.625-1.97-0.16-2.395C835.551,558.981,835.604,559.781,834.758,561.12z M834.143,595.413
			c3.035,3.314-3.8,2.514-2.731,1.75C832.308,596.526,833.259,595.968,834.143,595.413z M828.222,548.601
			c0.516,1.856,0.155,3.483-1.088,4.884c-2.196-0.044-3.357-1.042-3.483-2.998c-0.034,0.027-0.068,0.055-0.105,0.082l0.101-0.1
			l-0.105,0.1c-0.009-0.023-0.021-0.034-0.03-0.057c0.153-0.043-6.771,7.194-5.674,0.375c0.34-2.132,4.986-2.203,5.674-0.375
			c0.048-0.014,0.087-0.034,0.135-0.043c0.002,0.004,0.002,0.009,0.002,0.009c0.599-0.464,1.19-0.933,1.782-1.398
			C826.362,548.919,827.292,548.761,828.222,548.601z M820.58,566.282c-2.148-0.411-2.148-0.411-2.178-2.989
			c0.494-1.168,1.264-1.38,2.308-0.633C820.768,563.872,820.724,565.078,820.58,566.282z M813.4,540.717
			c0.288-0.377,0.724-0.64,1.092-0.955c0.386,0.64,0.772,1.282,1.159,1.922c0.919-0.009,1.838-0.018,2.757-0.024
			c0.984-0.171,1.936-0.517,2.854-1.049l0.107,0.112c0.734-0.039,1.469-0.057,2.203-0.057c0.389,0.397,0.523,2.655-0.203,2.171
			c0.018,1.32,0.559,2.466,1.094,3.614c0.076,0.164,0.152,0.328,0.227,0.493c-0.075-0.165-0.151-0.329-0.227-0.493
			c-0.535-1.148-1.076-2.294-1.094-3.612c-0.91-0.155-1.68-0.54-2.313-1.154c-1.28,2.199-2.183,2.324-2.615-0.025
			c-0.011,0-0.022,0-0.033,0c-0.892,0.154-1.81,0.166-2.757,0.024C814.444,543.54,810.982,543.875,813.4,540.717z M809.474,559.465
			c0.124-1.986-0.087-3.928,2.541-4.145c0.254-0.907,0.51-1.817,0.764-2.724c2.548,0.771,2.381,3.056,0.747,5.131
			c-0.688-0.227-1.394-0.345-2.116-0.357c-0.121,0.153-0.13,0.313-0.025,0.478C811.291,559.831,809.156,560.665,809.474,559.465z
			 M814.204,598.214c0.581,1.897-7.727-0.135-4.863-1.543c1.236,0.763,2.566,0.876,3.956,0.571
			C813.612,597.561,814.088,597.833,814.204,598.214z M813.409,558.312c-0.025,0.384,0.045,0.752,0.187,1.108
			C813.455,559.063,813.384,558.695,813.409,558.312z M806.651,554.429c-0.329,0.676-0.658,1.353-0.989,2.029
			C805.193,555.56,805.769,554.726,806.651,554.429z M805.728,548.565c-0.996,1.442-1.097,1.442-2.061-0.002
			C804.354,548.563,805.042,548.565,805.728,548.565z M804.225,562.37c-0.085,0.064,5.743,0.804-1.216,3.805
			C799.268,565.928,802.883,563.341,804.225,562.37z M796.838,558.392c0.51-0.51,1.159-0.828,1.942-0.953
			c0.663-0.009,1.323-0.02,1.984-0.03c-0.661,0.009-1.321,0.021-1.981,0.03c0.347,2.879,2.333,3.067,2.937,5.937
			c-1.771-0.519-3.243,0.688-4.897,0.853C796.829,562.283,796.834,560.338,796.838,558.392z M791.644,597.783
			c-0.194-0.158-0.389-0.313-0.583-0.469C792.503,596.146,791.541,597.815,791.644,597.783z M804.531,651.55
			c-2.542-4.276-5.56-8.741-7.269-13.435c-0.659-1.659-1.23-3.346-1.721-5.059c-0.299-0.27-0.384-0.565-0.254-0.887
			c-7.576-27.956,0.615-46.188,17.055-69.013c-7.521,10.387-12.877,24.386-15.017,38.365c1.289,0.601,2.393,1.408,3.312,2.424
			c-1.063,2.717-2.171,1.968-3.33-2.251c-2.201,16.477,1.398,34.538,9.909,48.72C806.315,650.787,805.431,651.18,804.531,651.55z
			 M803.402,596.974c-0.094-0.128-0.158-0.276-0.233-0.416c0.1-0.331,0.204-0.665,0.304-0.999
			C805.582,596.231,804.478,598.455,803.402,596.974z M816.613,646.436c-4.374-6.865-6.47-13.696-8.11-21.552
			c-1.375,0.649-2.47,1.629-3.231,3.005c-1.355-1.616,0.192-3.051,0.286-4.577c0.614-0.183,1.231-0.366,1.846-0.546
			c0.286,0.087,0.521,0.226,0.736,0.384c-1.211-5.789-0.606-12.594-0.163-18.408c-0.859,11.237,6.342,30.12,13.483,39.563
			C819.847,645.017,818.238,645.732,816.613,646.436z M827.301,641.685c-6.844-14.937-14.242-72.96,3.11-83.02
			c0.516,0.5,0.337,0.932-0.529,1.297c1.673-0.265,2.487,4.737-0.714,4.122c-1.096-0.669-1.32-1.558-0.675-2.665
			c-12.827,18.262-5.897,59.458,2.778,78.483C829.956,640.508,828.62,641.086,827.301,641.685z M827.185,595.116
			c-0.813,0.388-1.57-2.064,2.427-3.387C833.638,593.096,827.333,595.045,827.185,595.116z M830.091,627.935
			c-1.325-2.274-0.685-3.465,1.922-3.572C836.906,625.727,831.926,629.708,830.091,627.935z M840.526,623.629
			c1.926,3.602,3.469,5.857,5.757,9.15c-1.586,0.777-3.2,1.526-4.797,2.294c-4.917-8.947-7.402-19-8.344-29.055
			C833.604,610.509,838.017,619.154,840.526,623.629z M861.409,527.623c0.002-0.016,0.009-0.027,0.009-0.027
			c0.041-0.014,0.071,0.004,0.107,0.011c-0.027,0.039-0.055,0.08-0.083,0.119C861.434,527.688,861.42,527.657,861.409,527.623
			c-0.501,0.638-0.748,0.555-0.739-0.245C861.1,526.96,861.29,527.231,861.409,527.623z M857.35,558.826
			c-1.232,0.141-3.522-1.298-1.372-1.492c-0.032-0.017-0.029-0.021,0.039-0.005c-0.015,0.001-0.024,0.004-0.039,0.005
			C856.237,557.469,859.38,558.591,857.35,558.826z M858.57,539.856c-0.338-0.055-0.391-0.203-0.155-0.45
			c0.075-0.027,0.203,0.084,0.306,0.133C858.671,539.643,858.621,539.748,858.57,539.856z M867.156,541.227
			c-0.608-0.542-1.216-1.083-1.826-1.625c-2.514,0.048-9.582-1.051-1.91-4.895c0.939,1.52,1.577,3.151,1.91,4.895
			c0.61,0.542,1.218,1.083,1.829,1.625H867.156z M867.438,524.62c0.086-0.007,0.185,0.153,0.276,0.238
			C867.266,525.819,867.104,524.638,867.438,524.62z"/>
		<path style="fill:#7989AF;" d="M704.469,575.732c2.549-3.297,3.426-10.622,5.732-15.09
			C708.22,564.056,706.219,569.663,704.469,575.732z"/>
		<path style="fill:#7989AF;" d="M685.301,374.827c1.331,0.652,1.728-0.452,1.391-2.301
			C686.575,374.056,686.088,375.186,685.301,374.827z"/>
		<path style="fill:#7989AF;" d="M619.424,363.264c-0.01,0.137-0.027,0.278-0.049,0.423
			C619.398,363.542,619.413,363.402,619.424,363.264z"/>
		<path style="fill:#7989AF;" d="M619.432,363.129c-0.002,0.045-0.003,0.089-0.007,0.134
			C619.428,363.219,619.43,363.174,619.432,363.129z"/>
		<path style="fill:#7989AF;" d="M685.045,366.849c-0.335-0.238-0.699-0.453-1.074-0.657c1.449,2.22,2.407,4.602,2.721,6.333
			C686.849,370.503,686.358,367.779,685.045,366.849z"/>
		<path style="fill:#7989AF;" d="M619.375,363.686c-0.038,0.234-0.081,0.471-0.15,0.722
			C619.293,364.157,619.34,363.918,619.375,363.686z"/>
		<path style="fill:#7989AF;" d="M776.042,664.307c0.001-0.004,0.001-0.009,0.002-0.013c-0.037,0.014-0.074,0.027-0.111,0.04
			C775.97,664.323,776.006,664.319,776.042,664.307z"/>
		<path style="fill:#7989AF;" d="M349.62,511.703c-5.213,0.07-7.717,2.834-8.483,6.744
			C342.695,514.545,345.418,511.772,349.62,511.703z"/>
		<path style="fill:#7989AF;" d="M433.956,517.81c-0.004-0.003-0.008-0.007-0.012-0.01
			C433.877,517.998,433.895,517.966,433.956,517.81z"/>
		<path style="fill:#7989AF;" d="M199.895,542.837c0.024-0.043,0.042-0.086,0.067-0.129
			C199.778,542.839,199.78,542.871,199.895,542.837z"/>
		<path style="fill:#7989AF;" d="M800.274,511.017c-0.346-0.086-0.705-0.157-1.091-0.193
			C799.574,510.868,799.935,510.935,800.274,511.017z"/>
		<path style="fill:#7989AF;" d="M801.029,511.252c0.759,0.292,1.406,0.715,1.953,1.243
			C802.501,511.971,801.854,511.55,801.029,511.252z"/>
		<path style="fill:#7989AF;" d="M505.242,295.181c-0.003-0.003-0.006-0.005-0.009-0.007
			C505.208,295.183,505.206,295.188,505.242,295.181z"/>
		<path style="fill:#7989AF;" d="M800.471,511.07c-0.066-0.018-0.128-0.038-0.196-0.054
			C800.341,511.033,800.405,511.052,800.471,511.07z"/>
		<path style="fill:#7989AF;" d="M801.029,511.252c-0.179-0.069-0.367-0.128-0.558-0.182
			C800.668,511.123,800.849,511.188,801.029,511.252z"/>
		<path style="fill:#7989AF;" d="M744.176,522.376c0.211,0.147,0.426,0.293,0.646,0.439
			C744.656,522.649,744.444,522.501,744.176,522.376z"/>
		<path style="fill:#7989AF;" d="M743.402,527.499c0.073,3.677,6.675-2.127,3.606-3.462c-0.808-0.352-1.521-0.781-2.187-1.222
			C746.457,524.461,743.435,527.854,743.402,527.499z"/>
		<path style="fill:#7989AF;" d="M220.871,609.201c-0.409,0.876-0.797,1.958-1.164,3.208c0.394-1.094,0.791-2.169,1.191-3.207
			C220.888,609.203,220.881,609.201,220.871,609.201z"/>
		<path style="fill:#7989AF;" d="M545.305,595.883c-0.081-0.217-0.167-0.434-0.246-0.651
			C545.138,595.448,545.223,595.666,545.305,595.883z"/>
		<path style="fill:#7989AF;" d="M818.408,541.659c-0.919,0.007-1.838,0.016-2.757,0.024
			C816.597,541.825,817.516,541.813,818.408,541.659z"/>
		<path style="fill:#7989AF;" d="M514.363,600.966c-1.607,0.224-3.22,0.398-4.826,0.594
			C511.146,601.364,512.759,601.19,514.363,600.966z"/>
		<path style="fill:#7989AF;" d="M519.562,519.32c-0.001-0.001-0.002-0.002-0.003-0.003
			C519.548,519.318,519.547,519.319,519.562,519.32z"/>
		<path style="fill:#7989AF;" d="M153.087,582.69c-4.345,2.885-8.695,9.831-12.648,17.519c0.028,0.344,0.052,0.669,0.07,0.97
			C143.167,596.59,148.224,585.901,153.087,582.69z"/>
		<path style="fill:#7989AF;" d="M255.733,607.768c0.073-0.155,0.148-0.307,0.224-0.454
			C255.88,607.46,255.807,607.614,255.733,607.768z"/>
		<path style="fill:#7989AF;" d="M254.442,611.517c0.316-1.253,0.689-2.39,1.124-3.382
			C255.129,609.123,254.756,610.257,254.442,611.517z"/>
		<path style="fill:#7989AF;" d="M517.477,669.821c-0.144,0.007-0.985-0.561-1.706-1.238c0.001,0.025,0.002,0.05,0.004,0.075
			C516.234,669.428,516.817,669.853,517.477,669.821z"/>
		<path style="fill:#7989AF;" d="M266.008,604.114c-0.066,0.506-0.132,1.012-0.194,1.52
			C266.416,604.781,266.653,604.133,266.008,604.114z"/>
		<path style="fill:#7989AF;" d="M584.468,646.333c0.497-0.532,1.066-0.959,1.765-1.238l-0.001,0
			C585.533,645.373,584.966,645.801,584.468,646.333z"/>
		<path style="fill:#7989AF;" d="M592.958,446.747c0.411-0.675,3.216-3.814,1.777-4.702c-0.454,1.02-0.89,2.118-1.309,3.287
			c0.105,0,0.21,0.001,0.315,0.001C593.431,445.919,593.182,446.379,592.958,446.747z"/>
		<path style="fill:#7989AF;" d="M558.061,534.048c0.243-0.004,0.48,0.014,0.71,0.06
			C558.541,534.063,558.304,534.044,558.061,534.048z"/>
		<path style="fill:#7989AF;" d="M626.227,588.614c-0.676-0.443-1.246-1.038-1.883-1.545
			C624.981,587.577,625.548,588.171,626.227,588.614z"/>
		<path style="fill:#7989AF;" d="M331.436,651.946c-0.146,0.008-0.987-0.56-1.708-1.237c0.001,0.024,0.003,0.049,0.004,0.074
			C330.19,651.555,330.773,651.98,331.436,651.946z"/>
		<path style="fill:#7989AF;" d="M272.255,580.612c0.453-0.879,0.927-1.715,1.43-2.485
			C273.171,578.903,272.697,579.735,272.255,580.612z"/>
		<path style="fill:#7989AF;" d="M855.979,557.334c0.015-0.001,0.024-0.004,0.039-0.005
			C855.95,557.313,855.947,557.317,855.979,557.334z"/>
		<path style="fill:#7989AF;" d="M495.873,665.838c1.092,0.554,2.142,1.175,3.158,1.848c0-0.003,0.001-0.005,0.001-0.008
			C498.151,666.533,497.164,665.721,495.873,665.838z"/>
		<path style="fill:#7989AF;" d="M666.708,608.654c1.093,0.553,2.142,1.173,3.158,1.845c0-0.002,0-0.005,0-0.008
			C668.987,609.346,668,608.535,666.708,608.654z"/>
		<path style="fill:#7989AF;" d="M201.391,639.441c-0.101,0.126-0.191,0.266-0.287,0.398c0.236-0.086,0.443-0.168,0.605-0.242
			C201.604,639.545,201.514,639.484,201.391,639.441z"/>
		<path style="fill:#7989AF;" d="M544.712,594.255c-0.326-0.934-0.644-1.868-0.929-2.803
			C544.065,592.378,544.381,593.314,544.712,594.255z"/>
		<path style="fill:#7989AF;" d="M202.164,590.185c0.204-0.18,0.394-0.374,0.616-0.535
			C202.564,589.808,202.361,589.991,202.164,590.185z"/>
		<path style="fill:#7989AF;" d="M254.194,612.571c0.057-0.26,0.118-0.512,0.18-0.764
			C254.313,612.06,254.249,612.308,254.194,612.571z"/>
		<path style="fill:#7989AF;" d="M478.106,536.716c0.007-0.024,0.014-0.049,0.021-0.072
			C478.12,536.668,478.113,536.692,478.106,536.716z"/>
		<path style="fill:#7989AF;" d="M828.493,561.419c0.119-0.168,0.227-0.35,0.349-0.514
			C828.705,561.082,828.59,561.253,828.493,561.419z"/>
		<path style="fill:#7989AF;" d="M478.7,534.767c0.017-0.053,0.033-0.104,0.05-0.156C478.733,534.663,478.717,534.714,478.7,534.767
			z"/>
		<path style="fill:#7989AF;" d="M260.8,568.674c0.151-0.165,0.287-0.34,0.441-0.502C261.124,568.266,260.974,568.44,260.8,568.674z
			"/>
		<path style="fill:#7989AF;" d="M184.956,569.357c0.234-0.134,0.458-0.278,0.701-0.401
			C185.427,569.067,185.192,569.204,184.956,569.357z"/>
		<path style="fill:#7989AF;" d="M829.5,560.106c0.141-0.046,0.267-0.094,0.382-0.143
			C829.758,559.982,829.631,560.024,829.5,560.106z"/>
		<path style="fill:#7989AF;" d="M447.359,307.268c0.009,0.279,0.016,0.558,0.025,0.839c-1.888,1.442-3.841,1.6-5.866,0.466
			c-2.47,0.731-4.982,1.243-7.535,1.531c2.37-0.877,4.747-1.714,7.151-2.489c-0.162-1.476-0.03-2.948,0.396-4.415
			c0.317-0.034,0.635-0.068,0.953-0.103c0.359-0.871,0.354-1.816,0.037-2.703c-11.397,3.834-22.536,8.325-33.482,13.227
			c6.769-0.197,13.52,0.178,20.222,1.465c8.481-2.102,17.414-3.387,26.02-4.824c-3.515-1.353,2.686-2.103,0.814-0.139
			c6.888-1.127,13.771-1.298,20.739-1.611c0.409-0.43,0.853-0.448,1.323-0.05c1.241-0.061,2.484-0.1,3.727-0.121
			c0.112-0.142,0.32-0.254,0.469-0.37c0.203,0.066,0.389,0.194,0.55,0.359c2.599-0.002,5.19-0.142,7.779-0.423
			c-0.103-0.263-0.196-0.533-0.302-0.795c-0.002-0.373-0.002-0.745-0.004-1.118c0.386-0.132,0.772-0.263,1.159-0.395
			C476.811,305.864,462.101,304.111,447.359,307.268z"/>
		<path style="fill:#7989AF;" d="M136.336,606.156c-0.56,1.438-1.172,2.852-1.833,4.244c1.298-1.567,2.45-3.229,3.458-4.989
			c-0.423,0.103-0.912,0.201-1.47,0.299C136.436,605.856,136.395,606.012,136.336,606.156z"/>
		<path style="fill:#7989AF;" d="M186.998,643.157c0.373-0.839,0.715-1.684,0.98-2.548c-0.302,0.064-0.503,0.19-0.638,0.363
			C187.046,641.676,186.932,642.405,186.998,643.157z"/>
		<path style="fill:#7989AF;" d="M956.501,512.089c-0.017-0.256-0.138-0.464-0.316-0.635c0.091,0.358,0.177,0.715,0.258,1.069
			C956.486,512.399,956.513,512.26,956.501,512.089z"/>
		<path style="fill:#7989AF;" d="M953.044,512.313c-0.953-1.458,2.129-1.836,3.142-0.859c-1.285-5.059-3.526-10.326-6.86-9.02
			c1.735-0.67,3.357,18.061,0.8,21.109c-3.482,7.838-12.565,7.21-19.699,5.389l-1.577,1.257
			c-7.699-5.119-15.613-18.867-3.739-24.896c13.869-7.041,10.357,10.821,8.588,9.761c5.002,3.199,4.331-8.378,2.717-10.602
			c-3.396-4.676-11.415-3.75-15.661-0.567c-11.28,8.462-4.932,24.057,6.653,27.403c-2.461,1.796-6.305,3.782-9.313,1.988
			l-0.075,0.089l-5.754-1.277c-7.18,1.689-11.259-6.543-16.55-10.22c0.969,2.228,1.459,3.705,3.218,5.56
			c-1.07,1.168-2.708,1.869-3.313,3.421c5.105,5.236,10.747,9.712,18.387,7.779c5.818,4.296,13.168,1.382,18.113-2.644
			c11.76,2.208,24.014-2.825,25.394-16.349c0.061-0.598-0.284-3.694-1.07-7.112C956.034,513.697,953.412,512.878,953.044,512.313z
			 M919.137,523.326c-1.069-0.162-1.586-0.722-1.551-1.68c0.361-0.007,0.72-0.016,1.081-0.023
			C919.962,522.266,920.12,522.833,919.137,523.326z M943.791,534.684c0.265-0.076,0.589-0.277,0.78-0.188
			c0.166,0.078,0.183,0.478,0.265,0.736C943.973,535.486,944.122,535.68,943.791,534.684z M953.601,517.44
			c0.551,0.649,0.843,1.378,0.88,2.187C952.755,519.007,952.731,518.945,953.601,517.44z"/>
		<path style="fill:#7989AF;" d="M826.005,504.045c-0.322,0.743-0.589,1.517-0.731,2.361c0.441,0.667,0.672,1.378,0.802,2.107
			c2.573-2.507,13.629-3.803,12.969,1.837c-0.208,0.361-1.195,1.524-1.438,1.652c-1.215,1.621,2.313-0.612,2.56-1.832
			C841.616,502.992,830.245,501.675,826.005,504.045z"/>
		<path style="fill:#7989AF;" d="M585.871,526.096c-2.034,0.083-2.68,1.148-4.294,1.851c0.566,5.149,1.001,10.259,2.098,15.332
			c3.323,0.034,3.261,1.748,0.491,2.221c1.403,6.093,2.992,12.268,5.037,18.187c0.078-0.076,0.16-0.151,0.231-0.229
			c-0.281-2.109-1.609-6.04,1.961-6.097c-2.098-10.423-3.536-20.908-5.482-31.35C585.894,526.039,585.89,526.068,585.871,526.096z
			 M584.569,529.903c0.19-0.265,0.377-0.533,0.567-0.798C585.41,529.7,585.087,529.871,584.569,529.903z"/>
		<path style="fill:#7989AF;" d="M510.915,508.511c1.6-15.453,5.066-33.415,12.948-46.928c-1.575,0.315-3.161,0.599-4.758,0.821
			c-13.472,31.07-15.181,67.253-8.044,100.113c0.135-0.816,0.412-1.597,0.972-2.308c0.062-0.203,0.039-0.4-0.066-0.585
			c0.121-0.105,0.215-0.183,0.324-0.276c-1.257-7.373-1.807-14.603-2.066-22.069c-0.694,0.025-1.392,0.041-2.081,0.108l0.068-0.11
			c-0.103-2.063,0.012-4.031,1.961-5.263c0.004-5.946,0.217-11.943,0.413-17.882c-0.057,0.03-0.094,0.068-0.153,0.096
			c-0.014-0.884-0.027-1.769-0.04-2.653c-0.606-0.332-1.21-0.661-1.815-0.99C508.492,509.15,509.272,508.46,510.915,508.511z
			 M508.59,515.085c0.199,1.392-0.311,1.001-0.948,0.046C507.957,515.102,508.272,515.085,508.59,515.085z"/>
		<path style="fill:#7989AF;" d="M517.174,585.25c3.184,10.09,6.259,20.398,11.088,29.862c-3.792-9.961-6.986-19.907-10.133-30.111
			C517.864,585.264,517.514,585.351,517.174,585.25z"/>
		<path style="fill:#7989AF;" d="M515.945,577.325c-1.113-4.314-2.009-8.691-2.83-13.074c-0.091-0.019-0.183-0.035-0.269-0.062
			c0.002,0.023,0.002,0.043,0.004,0.066c-0.03,0.004-0.062,0.009-0.094,0.011c-0.03,0.782-0.361,1.273-0.882,1.577
			c1.561,5.9,2.905,11.865,4.768,17.683c0.16-0.432,0.377-0.807,0.683-1.09c-0.283-0.884-0.53-1.78-0.736-2.688
			C515.954,578.97,515.739,578.161,515.945,577.325z"/>
		<path style="fill:#7989AF;" d="M356.629,355.528c-0.28,0.174-0.477,0.339-0.612,0.498c0.328-0.124,0.655-0.253,0.984-0.374
			C356.882,355.609,356.769,355.567,356.629,355.528z"/>
		<path style="fill:#7989AF;" d="M439.313,324.005c0.009,0.02,0.021,0.048,0.03,0.064c-0.039,3.058-1.554,0.841-1.559,0.101
			c-19.249,2.114-37.518,0.608-56.396,8.305c0.592,0.418,1.695,1.78,0.288,2.109c-1.316-0.603-2.635-1.205-3.954-1.808
			c0.155-0.185,0.265-0.393,0.329-0.628c0.902-0.039,1.808-0.078,2.712-0.119c0.162,0.117,0.325,0.235,0.489,0.35
			c6.831-3.482,13.933-6.593,20.995-9.607c-27.104,2.699-58.153,21.547-76.111,42.332c0.002,0.233-0.002,0.466-0.025,0.697
			c-0.272,0.958-0.632,1.55-1.073,1.8c2.576-0.998,5.652-1.463,6.723,1.97c16.141-10.777,41.686-16.509,60.722-19.119
			c-0.002-0.288-0.016-0.576-0.048-0.864c-0.784-0.418-1.259-1.019-1.54-1.728c-2.887,0.068-5.743,0.402-8.565,1.008
			c-0.331,0.514-0.633,0.564-0.903,0.153c-8.656,1.415-16.632,3.736-24.425,6.629c1.274,0.448,1.341,1.02,0.169,1.719
			c-1.241-0.352-1.618-0.801-1.154-1.344c-7.496,2.835-14.843,6.183-22.48,9.759c12.928-12.203,32.895-18.04,49.707-23.68
			c0.286-0.905,0.692-1.053,1.218-0.448c16.075-6.893,31.169-8.042,48.121-12.066c-0.832-1.659,0.885-1.808,1.033-0.235
			c11.061-2.417,24.445,0.435,35.771,0.302c7.532-0.089,30.419-3.131,35.465,1.609c-5.962-5.601-28.02-3.599-36.592-4.783
			C458.623,325.152,449.233,323.05,439.313,324.005z M356.115,347.168l2.254,0.507C357.596,347.639,356.832,347.468,356.115,347.168
			z M441.486,325.675c0.681,0.608,1.072,1.346,1.028,2.281C440.887,327.314,440.885,327.311,441.486,325.675z"/>
		<path style="fill:#7989AF;" d="M325.038,367.601c-0.089,0.035-0.178,0.069-0.267,0.105
			C324.864,367.684,324.953,367.649,325.038,367.601z"/>
		<path style="fill:#7989AF;" d="M323.901,367.576c-0.327,0.325-0.656,0.649-0.982,0.976c0.543-0.27,1.178-0.572,1.853-0.846
			C324.507,367.769,324.219,367.734,323.901,367.576z"/>
		<path style="fill:#7989AF;" d="M394.992,348.363c0.064,0.624-0.309,1.255-1.154,1.803c-0.135,0.089-0.304,0.124-0.471,0.165
			c4.175-0.491,11.465-0.843,14.294-1.017C403.182,349.588,399.348,349.289,394.992,348.363z"/>
		<path style="fill:#7989AF;" d="M354.815,372.384c-13.983,1.248-24.921,5.522-37.677,10.622c1.433-1.666,2.884-3.316,4.354-4.95
			c-2.437,1.401-5.844,4.392-8.596,1.609c-0.299,0.354-0.578,0.724-0.875,1.079c0.846,0.587,1.564,1.311,2.153,2.178
			c-0.163,0.695-0.128,1.511-1.085,1.691c0.002,0.035,0.004,0.069,0.004,0.103c0.009,0.007,0.007,0.135,0.007,0.135l-0.007-0.135
			c0-0.002-0.002-0.004-0.002-0.004v0.002c-0.671-1.021-1.661-1.561-2.973-1.618c-4.26,5.224-18.499,19.047-20.94,25.478
			l0.338-0.379l0.24,0.69l-0.656-0.107c-2.868,7.843-12.014,17.693-12.402,25.975c-1.982,3.793-3.668,7.747-5.999,11.326
			c0.645-0.196,6.028-2.413,6.858-2.422c5.453-11.123,16.87-19.912,26.866-26.806c6.852-4.726,33.191-22.499,40.854-20.613
			c-6.865-1.707-25.787,9.402-31.814,12.1c-9.395,4.205-19.242,9.331-26.326,17.206c11.25-19.715,29.855-36.395,51.293-43.911
			c10.053-3.525,44.649-14.215,55.759-8.748C386.025,368.751,364.162,371.549,354.815,372.384z"/>
		<path style="fill:#7989AF;" d="M394.188,372.882c0.022,0.011,0.046,0.022,0.069,0.034
			C394.234,372.905,394.211,372.894,394.188,372.882z"/>
		<path style="fill:#7989AF;" d="M394.257,372.916c0.345,0.174,0.668,0.361,0.966,0.567
			C394.93,373.279,394.601,373.094,394.257,372.916z"/>
		<path style="fill:#7989AF;" d="M316.925,428.613c4.367-3.279,9.37-5.931,14.347-8.149c1.513-0.72,7.843-3.387,9.536-3.359
			c-8.023-0.121-18.01,6.586-24.525,10.773C316.573,428.01,316.799,428.248,316.925,428.613z"/>
		<path style="fill:#7989AF;" d="M314.841,428.835c-6.92,4.573-13.991,8.834-20.383,14.13c1.38-0.046,2.763-0.087,4.15-0.128
			c5.436-4.835,11.315-8.876,17.08-13.282C315.284,429.484,314.978,429.249,314.841,428.835z"/>
		<path style="fill:#7989AF;" d="M391.973,656.167c-0.094-0.247-0.192-0.491-0.281-0.74
			C391.605,655.675,391.69,655.929,391.973,656.167z"/>
		<path style="fill:#7989AF;" d="M390.462,659.885c0.329-3.366-0.668-4.721-0.08-8.127c-8.387-23.703-12.976-53.082-9.799-78.026
			c-4.059-0.955-3.245,0.178-6.287-3.771c2.742-0.185,4.932,0.633,6.421,2.712c0.713-5.183,1.12-10.481,2.582-15.515
			c-0.208-0.124-0.391-0.284-0.592-0.414c-4.349,2.109-9.207,3.069-14.029,2.756c-0.009,0.082-0.014,0.167-0.02,0.251
			c0.315,0.299,0.689,0.564,1.037,0.825c-0.315,0.499-0.626,1.003-0.941,1.506c-0.099,0.032-0.199,0.055-0.297,0.082
			c-2.642,34.496,3.453,61.378,14.984,93.742c4.102,3.282,8.294,6.39,12.649,9.324c-0.895-1.79-1.75-3.597-2.561-5.425
			C392.505,659.832,391.484,659.86,390.462,659.885z M377.194,591.571c-0.487-0.8-0.352-1.095,0.496-0.537
			C377.526,591.215,377.361,591.393,377.194,591.571z M383.085,630.009c-0.178-0.377-0.068-0.409,0.332-0.1
			C383.308,629.943,383.198,629.977,383.085,630.009z M384.599,654.864c-1.33-1.481,0.633-1.652,1.551,0.05
			C385.634,654.898,385.115,654.88,384.599,654.864z M386.034,650.591c-1.387-0.089-1.957-0.933-1.705-2.532
			c-0.025,0.004-0.05,0.004-0.075,0.007l-0.119-0.251l0.199,0.178c-0.002,0.023-0.002,0.043-0.005,0.066
			C385.38,647.933,387.633,649.249,386.034,650.591z"/>
		<path style="fill:#7989AF;" d="M366.038,560.743c-0.103-0.087-0.206-0.172-0.306-0.258c-0.99,0.23-1.979,0.464-2.969,0.697
			c0.989-0.233,1.979-0.466,2.969-0.702c0.16-0.219,0.297-0.407,0.429-0.581l0.099-0.674c-5.281-0.802-9.875-3.015-13.78-6.632
			c-1.973,2.475-4.425,4.717-7.153,6.611c-0.439,1.657-2.167,3.953-1.749,1.151c-0.589,0.361-1.188,0.704-1.793,1.031
			c-4.861,20.796-8.152,44.579,7.717,62.02c-4.523-20.547-5.048-48.229,2.24-68.3c-1.828,5.076-1.552,17.684-2.191,24.79
			c0.253-0.059,0.505-0.119,0.759-0.178c1.435-1.979,2.557-1.748,3.967,0.096c-0.315,0.5-0.629,1.005-0.944,1.508
			c-0.277,0.091-0.555,0.169-0.841,0.233c-0.727-0.61-1.456-1.218-2.182-1.833c-0.254,0.057-0.505,0.119-0.759,0.178
			c-0.35,3.879-0.181,7.679-0.135,11.586c1.657-0.336,1.695,0.928,0.002,1.376c0.009,12.171,1.835,24.26,5.153,36.014
			c6.493,6.904,13.216,13.554,20.3,19.818C363.512,621.474,362.13,589.661,366.038,560.743z M344.664,596.057
			c-0.523,1.255-2.048-0.786-0.626-1.575C344.762,594.816,344.926,595.426,344.664,596.057z M345.313,563.648
			c-3.03,0.226,0.087-3.599,0.537-0.587C345.676,563.264,345.507,563.634,345.313,563.648z"/>
		<path style="fill:#7989AF;" d="M399.11,558.679c-4.573,1.456-10.021,1.328-14.388-0.761
			c-8.702,39.681,6.106,75.439,18.769,112.079c4.292,2.626,8.659,5.107,13.067,7.516c1.721-0.58,2.879,0.046,3.474,1.876
			c0.247,0.132,0.489,0.265,0.736,0.398c-2.678-5.366-5.304-10.821-7.461-16.419C399.693,630.156,396.984,594.341,399.11,558.679z
			 M388.024,593.173c-0.014-0.402,0.169-0.544,0.551-0.427C388.897,593.242,388.714,593.383,388.024,593.173z M402.113,631.952
			c0.151,0.169,0.274,0.361,0.407,0.548c-0.318,0.366-0.558,0.252-0.718-0.345C401.91,632.084,402.099,631.938,402.113,631.952z
			 M400.063,641.514c0.609-2.658,1.811,2.041,2.082,2.361c0.019-0.02,0.038-0.034,0.057-0.056c-0.005,0.088-0.027,0.091-0.057,0.056
			C400.925,645.171,399.628,643.442,400.063,641.514z M394.79,592.691c-2.326,0.379,0.453-4.013,1.629-1.362
			C396.315,592.282,395.575,592.563,394.79,592.691z M403.19,649.238c0.038-0.066-5.855,3.764-5.138-0.121
			c0.274-1.492,4.5-0.277,4.763-0.247c0.148-0.249,0.284-0.327,0.409-0.233c0.34-0.037,0.329,0.162-0.037,0.597l-0.002-0.002
			L403.19,649.238z"/>
		<path style="fill:#7989AF;" d="M402.202,643.819c-0.019,0.022-0.038,0.036-0.057,0.056
			C402.175,643.911,402.197,643.908,402.202,643.819z"/>
		<path style="fill:#7989AF;" d="M430.169,662.515c-1.833-0.738-1.775-1.305,0.171-1.698c0.537-0.656,2.057-2.644,3.078-1.685
			c-6.808-17.464-9.694-33.957-11.716-52.442c-1.867-19.413-1.204-38.054,0.823-57.401c-3.423,0.304-6.829,0.752-10.211,1.344
			c-2.797,26.1-2.42,53.976,3.488,79.651c1.97-1.39,3.839-1.6,5.763,0.076c3.192,0.921,0.432,4.228-0.448,1.053
			c-1.776-0.165-3.4,0.103-4.85,0.905c4.447,19.647,11.429,37.636,20.156,55.722c4.177,0.594,6.901,2.639,8.17,6.138
			c2.066,1.181,4.662,2.296,6.849,3.232c-7.176-11.324-12.802-24.11-17.407-36.684C434.358,663.429,431.968,663.637,430.169,662.515
			z M421.897,625.005l0.164-0.238l0.101,0.27L421.897,625.005z"/>
		<path style="fill:#7989AF;" d="M380.286,412.909c-16.157-2.58-31.943,16.223-23.337,31.203c-3.624-0.222-7.217,0.064-10.775,0.855
			c7.873,1.282,16.212,3.026,23.904,6.024c-9.84-11.038-8.533-36.768,12.046-32.631c3.94,0.709,8.876,3.3,9.516,7.53
			c0.688,4.532-7.18,3.43-6.8,2.329c-1.381,3.663,7.621,1.865,8.274-3.988C393.918,416.997,385.659,413.768,380.286,412.909z"/>
		<path style="fill:#7989AF;" d="M406.907,554.875c-0.674,0.45-1.357,0.879-2.057,1.275c-0.427,10.821-0.078,21.763,0.505,32.574
			c0.576,10.921,0.372,22.318,3.09,33.006C405.303,599.929,405.28,576.833,406.907,554.875z"/>
		<path style="fill:#7989AF;" d="M223.843,638.172c-0.171-0.206-0.135-0.391,0.11-0.551c0.087-0.535,0.16-1.069,0.217-1.611
			c-0.418,1.707-1.248,3.361-1.471,5.105C223.299,640.204,223.682,639.224,223.843,638.172z"/>
		<path style="fill:#7989AF;" d="M336.754,448.123c-22.206-5.708-45.031-6.214-67.196-0.174c0.979,0.437,1.529,1.147,1.65,2.125
			c-1.847,2.379-4.87,2.208-6.899-0.416c-23.947,8.156-46.597,19.754-72.004,23.152c-25.259,3.378-46.117,0.829-69.029,15.812
			c0.263,0.347,0.38,0.74,0.35,1.177c-0.494,1.7-7.663,10.291-8.745,4.799c-34.264,26.379-52.381,68.784-68.527,107.691
			c14.217-17.535,23.331-39.602,35.463-58.517c-0.002-0.155,0.091-0.286,0.254-0.391c14.774-22.841,34.743-39.332,61.567-44.661
			c12.439-2.471,24.774-1.844,37.416-0.985c9.34,0.635,32.698,0.024,40.72,5.606c-12.178-9.099-51.674-11.446-65.672-10.305
			c-1.392,1.755-2.6,1.897-3.627,0.425c-13.012,2.027-21.762,2.36-34.325,7.379c31.068-23.716,64.116-15.645,99.206-26.201
			c12.393,1.077,23.995-0.089,36.423,2.596c7.758,1.677,34.265,5.631,38.442,11.648c-6.6-9.472-30.248-10.064-40.17-15.247
			c-2.532,2.648-4.67,2.125-6.419-1.57c-5.023-0.932-10.389-0.909-15.487-1.508c2.603-0.861,5.19-1.775,7.756-2.745
			c0.299-0.516,0.832-0.692,1.367-0.489c22.299-8.049,42.053-19.743,66.364-14.946c12.224,2.411,22.905,8.044,33.572,14.331
			c6.072,3.576,28.578,13.646,30.042,20.113c-1.506-6.957-22.163-17.777-28.196-21.978c-8.636-6.01-17.208-10.62-26.989-14.717
			c10.371,0.729,20.604,2.621,30.616,5.386c0.117-0.411,0.213-0.83,0.286-1.264c-2.041,0.135-3.805-0.404-5.293-1.613
			c1.767,0.539,3.531,1.079,5.295,1.613c-0.073,0.434-0.169,0.855-0.286,1.264c3.433,0.949,41.174,13.488,40.833,14.891
			C387.624,468.253,338.386,448.543,336.754,448.123z M114.671,502.964l-0.585-0.373l0.669-0.23L114.671,502.964z"/>
		<path style="fill:#7989AF;" d="M221.773,503.342c0.254,0.19,0.515,0.378,0.745,0.573
			C222.288,503.717,222.039,503.526,221.773,503.342z"/>
		<path style="fill:#7989AF;" d="M42.479,615.891c1.458-1.414,7-7.226,9.71-7.487c2.681-6.6,21.193-42.648,23.851-49.021
			c-5.59,7.233-26.729,44.208-31.742,51.873C43.691,612.788,43.085,614.342,42.479,615.891z"/>
	</g>
</g>
</svg>
